<svg width="227" height="20" viewBox="0 0 227 20" fill="none" xmlns="http://www.w3.org/2000/svg">
<g opacity="0.6">
<path d="M21.7643 8.89755C21.7643 8.89755 22.116 10.5585 22.1951 10.9064H20.6494L21.3902 8.96424C21.381 8.9779 21.5427 8.55765 21.6352 8.29892L21.7643 8.89755ZM26.6667 2.14303V17.857C26.6664 18.4253 26.4322 18.9702 26.0155 19.3721C25.5987 19.7739 25.0336 19.9998 24.4442 20H2.22243C1.63307 19.9998 1.06792 19.7739 0.651179 19.3721C0.23444 18.9702 0.000220857 18.4253 0 17.857V2.14303C0.000220857 1.57473 0.23444 1.02976 0.651179 0.627914C1.06792 0.226064 1.63307 0.000212967 2.22243 0H24.4442C25.0336 0.000212967 25.5987 0.226064 26.0155 0.627914C26.4322 1.02976 26.6664 1.57473 26.6667 2.14303ZM7.06061 13.3572L9.98635 6.42909H8.01892L6.19981 11.1611L6.00065 10.2017L5.35233 7.01406C5.24567 6.57212 4.91735 6.44677 4.50986 6.42909H1.51495L1.48245 6.5673C2.16833 6.72955 2.82624 6.98667 3.43573 7.33066L5.09317 13.3572H7.06061ZM11.4313 13.366L12.5979 6.42909H10.7372L9.57553 13.366H11.4313ZM17.9078 11.0984C17.9169 10.3086 17.417 9.70591 16.3478 9.21012C15.6953 8.89273 15.297 8.67899 15.297 8.35275C15.3062 8.05785 15.6353 7.75412 16.3662 7.75412C16.8422 7.74117 17.3151 7.83123 17.7503 8.01768L17.9169 8.09321L18.1719 6.59301C17.64 6.39663 17.0749 6.29666 16.5053 6.29811C14.667 6.29811 13.3754 7.24468 13.3662 8.59221C13.3521 9.58779 14.2921 10.1414 14.9962 10.4757C15.7137 10.8148 15.9595 11.0382 15.9595 11.3371C15.9503 11.8015 15.3762 12.0153 14.8437 12.0153C14.1029 12.0153 13.7046 11.9036 13.0979 11.6448L12.8529 11.5331L12.5938 13.0912C13.0288 13.2832 13.8346 13.4528 14.6679 13.4616C16.6211 13.4656 17.8944 12.5327 17.9086 11.096L17.9078 11.0984ZM24.4442 13.366L22.9443 6.42909H21.5043C21.0602 6.42909 20.7219 6.55444 20.5319 7.00522L17.7678 13.3668H19.7211C19.7211 13.3668 20.0402 12.5094 20.1102 12.327H22.4993C22.5551 12.5729 22.7218 13.3668 22.7218 13.3668L24.4442 13.366Z" fill="#555F7F"/>
<path d="M48.155 3.20726e-05C47.3329 3.20726e-05 46.666 0.663407 46.666 1.48191V18.5182C46.666 19.3365 47.333 20 48.155 20H77.177C77.9991 20 78.666 19.3366 78.666 18.5181V1.48188C78.666 0.663502 77.999 0 77.177 0L48.155 3.20726e-05ZM57.159 2.40748C58.9856 2.40748 60.6632 3.03993 61.98 4.09636C60.8721 5.08295 60.0457 6.37916 59.638 7.84836H60.277C60.6533 6.63633 61.3369 5.55722 62.238 4.70146C63.1391 5.55722 63.8226 6.63633 64.199 7.84836H64.848C64.4346 6.3869 63.6071 5.09843 62.5 4.11827C63.8194 3.04843 65.5035 2.40745 67.338 2.40745C71.5713 2.40745 75.003 5.82311 75.003 10.0368C75.003 14.2506 71.5713 17.6662 67.338 17.6662C65.473 17.6662 63.763 17.0037 62.434 15.9017C63.6228 14.8724 64.4992 13.4925 64.9 11.9228H64.275C63.9191 13.2403 63.2028 14.4121 62.238 15.3284C61.2732 14.4121 60.5579 13.2403 60.202 11.9228H59.607C60.0101 13.4698 60.8751 14.8303 62.046 15.8499C60.7194 16.9383 59.0161 17.5926 57.159 17.5926C52.9257 17.5926 49.494 14.1933 49.494 10C49.494 5.80671 52.9257 2.40748 57.159 2.40748ZM66.763 7.77072C65.842 7.77072 64.946 8.57206 64.946 10.0766C64.946 11.0743 65.43 11.7327 66.382 11.7327C66.6512 11.7328 67.08 11.6232 67.08 11.6232L67.222 10.7514C67.222 10.7514 66.8306 10.9485 66.562 10.9485C65.9961 10.9485 65.769 10.5153 65.769 10.0498C65.769 9.10543 66.2559 8.58578 66.798 8.58578C67.2045 8.58578 67.531 8.8147 67.531 8.8147L67.661 7.96677C67.661 7.96677 67.1777 7.77072 66.763 7.77072ZM74.506 7.84438L73.705 7.84636L73.533 8.89534C73.533 8.89534 73.2319 8.48827 72.761 8.48827C72.0288 8.48827 71.419 9.35387 71.419 10.3493C71.419 10.9919 71.7436 11.6222 72.409 11.6222C72.8877 11.6222 73.153 11.2948 73.153 11.2948L73.118 11.5744H73.896L74.506 7.84438ZM51.564 7.85531L50.926 11.5943H51.695L52.181 8.77492L52.253 11.5943H52.803L53.829 8.77492L53.374 11.5943H54.191L54.821 7.85531H53.557L52.77 10.1493L52.729 7.85534L51.564 7.85531ZM59.598 8.09814C59.5806 8.1155 59.133 10.6843 59.133 10.9972C59.133 11.4605 59.3939 11.6674 59.761 11.664C60.024 11.6618 60.2278 11.596 60.322 11.5685C60.3319 11.5658 60.351 11.5605 60.351 11.5605L60.45 10.8917C60.3962 10.8917 60.3169 10.9146 60.247 10.9146C59.9729 10.9146 59.9425 10.7695 59.96 10.6618L60.181 9.29741H60.598L60.699 8.55792H60.306L60.386 8.09814H59.598ZM68.893 8.47435C68.3563 8.47435 67.945 8.6505 67.945 8.6505L67.831 9.33721C67.831 9.33721 68.1707 9.19687 68.684 9.19687C68.9755 9.19687 69.189 9.23005 69.189 9.47155C69.189 9.61823 69.163 9.6726 69.163 9.6726C69.163 9.6726 68.9325 9.65269 68.826 9.65269C68.1491 9.65269 67.438 9.94792 67.438 10.836C67.438 11.5357 67.9048 11.6959 68.194 11.6959C68.7463 11.6959 68.9844 11.3307 68.997 11.3296L68.971 11.6342H69.66L69.968 9.43674C69.9681 8.50432 69.1701 8.47435 68.893 8.47435ZM55.968 8.47833C55.4293 8.47833 55.016 8.65448 55.016 8.65448L54.902 9.3412C54.902 9.3412 55.2428 9.20085 55.758 9.20085C56.0506 9.20085 56.265 9.23416 56.265 9.47553C56.265 9.62215 56.239 9.67658 56.239 9.67658C56.239 9.67658 56.0079 9.65667 55.901 9.65667C55.2216 9.65667 54.508 9.95142 54.508 10.839C54.508 11.5384 54.9758 11.6989 55.266 11.6989C55.8203 11.6989 56.0593 11.3337 56.072 11.3326L56.046 11.6371H56.738L57.047 9.44072C57.047 8.50884 56.2461 8.47833 55.968 8.47833ZM58.412 8.47833C57.8335 8.47833 57.246 8.71072 57.246 9.50441C57.246 10.4037 58.225 10.3129 58.225 10.6917C58.225 10.9445 57.9518 10.9654 57.741 10.9654C57.3762 10.9654 57.0482 10.84 57.047 10.846L56.942 11.5327C56.9609 11.5385 57.164 11.6292 57.82 11.6292C57.9961 11.6292 59.003 11.6737 59.003 10.63C59.003 9.65422 58.071 9.84763 58.071 9.45562C58.071 9.26046 58.2223 9.19887 58.5 9.19887C58.6103 9.19887 59.035 9.23371 59.035 9.23371L59.133 8.54002C59.133 8.54011 58.8589 8.47833 58.412 8.47833ZM62.028 8.47833C61.2241 8.47849 60.629 9.33874 60.629 10.3105C60.629 11.4321 61.3747 11.6989 62.01 11.6989C62.5964 11.6989 62.855 11.5685 62.855 11.5685L62.995 10.8032C62.995 10.8032 62.5489 10.9982 62.146 10.9982C61.2876 10.9982 61.438 10.3623 61.438 10.3623H63.063C63.063 10.3623 63.168 9.84833 63.168 9.63874C63.168 9.11581 62.9057 8.47833 62.028 8.47833ZM64.939 8.51117C64.5769 8.51117 64.308 8.99585 64.308 8.99585L64.38 8.55097H63.628L63.123 11.6222H63.954C64.1894 10.3107 64.2323 9.24578 64.794 9.44072C64.8923 8.93307 64.9877 8.73696 65.095 8.52212C65.095 8.52212 65.0446 8.51117 64.939 8.51117ZM71.672 8.51117C71.3099 8.51117 71.041 8.99585 71.041 8.99585L71.113 8.55097H70.361L69.856 11.6222H70.686C70.9214 10.3107 70.9655 9.24578 71.527 9.44072C71.6255 8.93307 71.7208 8.73696 71.828 8.52212C71.828 8.52212 71.7775 8.51117 71.672 8.51117ZM62.024 9.17101C62.4805 9.17101 62.397 9.68387 62.397 9.72534H61.498C61.498 9.67241 61.583 9.17101 62.024 9.17101ZM72.887 9.23072C73.1776 9.23062 73.327 9.42597 73.327 9.88556C73.327 10.3026 73.1157 10.8599 72.678 10.8599C72.3875 10.8599 72.251 10.6211 72.251 10.2468C72.251 9.63479 72.5324 9.23072 72.887 9.23072ZM68.894 10.2757C69.0125 10.2758 69.037 10.2873 69.057 10.2926C69.0541 10.2921 69.0536 10.2927 69.065 10.2946C69.08 10.4314 68.982 11.0729 68.508 11.0729C68.2636 11.0729 68.201 10.8795 68.201 10.7653C68.201 10.5428 68.3174 10.2757 68.894 10.2757ZM55.969 10.2787C56.1036 10.2788 56.1183 10.2938 56.141 10.2976C56.1561 10.4343 56.0576 11.0749 55.582 11.0749C55.3367 11.0749 55.273 10.8824 55.273 10.7683C55.273 10.5459 55.3901 10.2787 55.969 10.2787Z" fill="#555F7F"/>
<path d="M123.759 12.8829V12.574H123.683L123.594 12.7799L123.505 12.574H123.429V12.8829H123.48V12.6512L123.569 12.8571H123.632L123.721 12.6512V12.8829H123.759ZM123.252 12.8829V12.6255H123.353V12.574H123.1V12.6255H123.201V12.8829H123.252Z" fill="#555F7F"/>
<path d="M108.343 7.95367C108.343 5.41828 109.509 3.15315 111.333 1.69884C110.003 0.630631 108.318 0 106.494 0C102.175 0 98.666 3.56499 98.666 7.95367C98.666 12.3423 102.175 15.9073 106.494 15.9073C108.318 15.9073 110.003 15.2767 111.333 14.2085C109.509 12.7542 108.343 10.4891 108.343 7.95367Z" fill="#555F7F"/>
<path d="M123.999 7.95367C123.999 12.3423 120.491 15.9073 116.171 15.9073C114.347 15.9073 112.663 15.2767 111.333 14.2085C113.157 12.7542 114.322 10.4891 114.322 7.95367C114.322 5.41828 113.157 3.15315 111.333 1.69884C112.663 0.630631 114.347 0 116.171 0C120.491 0 123.999 3.56499 123.999 7.95367Z" fill="#555F7F"/>
<path d="M117.058 17.7477C117.147 17.7477 117.286 17.7606 117.375 17.7992L117.235 18.2368C117.134 18.1982 117.045 18.1853 116.957 18.1853C116.665 18.1853 116.513 18.3784 116.513 18.7259V19.9099H116.057V17.7992H116.501V18.0566C116.627 17.8636 116.805 17.7477 117.058 17.7477ZM115.386 18.2111H114.651V19.1635C114.651 19.3694 114.727 19.5109 114.955 19.5109C115.069 19.5109 115.221 19.4723 115.361 19.3951L115.487 19.7941C115.348 19.897 115.12 19.9614 114.917 19.9614C114.385 19.9614 114.195 19.6654 114.195 19.1763V18.2111H113.777V17.7864H114.195V17.1429H114.651V17.7864H115.386V18.2111ZM109.597 18.6615C109.648 18.3526 109.825 18.1467 110.155 18.1467C110.446 18.1467 110.636 18.3269 110.687 18.6615H109.597ZM111.155 18.8546C111.155 18.1982 110.75 17.7477 110.167 17.7477C109.559 17.7477 109.129 18.1982 109.129 18.8546C109.129 19.5238 109.572 19.9614 110.193 19.9614C110.509 19.9614 110.788 19.8842 111.041 19.6654L110.813 19.3308C110.636 19.4723 110.421 19.5495 110.205 19.5495C109.914 19.5495 109.648 19.408 109.585 19.0347H111.13C111.143 18.9704 111.155 18.9189 111.155 18.8546ZM113.144 18.3398C113.017 18.2625 112.764 18.1596 112.498 18.1596C112.245 18.1596 112.105 18.2497 112.105 18.4041C112.105 18.5457 112.257 18.5843 112.46 18.61L112.675 18.6358C113.131 18.7001 113.397 18.8932 113.397 19.2664C113.397 19.6654 113.055 19.9614 112.447 19.9614C112.105 19.9614 111.789 19.8713 111.548 19.6911L111.763 19.3308C111.915 19.4466 112.143 19.5495 112.46 19.5495C112.764 19.5495 112.929 19.4595 112.929 19.2922C112.929 19.1763 112.815 19.112 112.561 19.0734L112.346 19.0476C111.877 18.9833 111.624 18.7645 111.624 18.4299C111.624 18.0051 111.966 17.7477 112.485 17.7477C112.815 17.7477 113.119 17.825 113.334 17.9665L113.144 18.3398ZM118.717 18.1725C118.629 18.1725 118.54 18.1853 118.464 18.2239C118.388 18.2626 118.312 18.3012 118.261 18.3655C118.211 18.4299 118.16 18.4942 118.122 18.5843C118.084 18.6615 118.071 18.7645 118.071 18.8546C118.071 18.9575 118.084 19.0476 118.122 19.1248C118.16 19.2021 118.198 19.2793 118.261 19.3436C118.325 19.408 118.388 19.4466 118.464 19.4852C118.54 19.5238 118.629 19.5367 118.717 19.5367C118.806 19.5367 118.895 19.5238 118.971 19.4852C119.047 19.4466 119.123 19.408 119.173 19.3436C119.237 19.2793 119.275 19.2149 119.313 19.1248C119.351 19.0476 119.363 18.9447 119.363 18.8546C119.363 18.7516 119.351 18.6615 119.313 18.5843C119.275 18.5071 119.237 18.4299 119.173 18.3655C119.11 18.3012 119.047 18.2626 118.971 18.2239C118.895 18.1982 118.806 18.1725 118.717 18.1725ZM118.717 17.7477C118.882 17.7477 119.034 17.7735 119.161 17.8378C119.3 17.8893 119.414 17.9665 119.515 18.0695C119.617 18.1725 119.693 18.2883 119.756 18.417C119.807 18.5586 119.845 18.7001 119.845 18.8546C119.845 19.009 119.819 19.1635 119.756 19.2922C119.705 19.4337 119.617 19.5496 119.515 19.6396C119.414 19.7426 119.3 19.8198 119.161 19.8713C119.021 19.9228 118.869 19.9614 118.717 19.9614C118.553 19.9614 118.401 19.9356 118.274 19.8713C118.135 19.8198 118.021 19.7426 117.919 19.6396C117.818 19.5367 117.742 19.4209 117.679 19.2922C117.628 19.1506 117.59 19.009 117.59 18.8546C117.59 18.7001 117.615 18.5457 117.679 18.417C117.729 18.2754 117.818 18.1596 117.919 18.0695C118.021 17.9665 118.135 17.8893 118.274 17.8378C118.401 17.7735 118.553 17.7477 118.717 17.7477ZM106.963 18.8546C106.963 18.4813 107.203 18.1725 107.596 18.1725C107.976 18.1725 108.217 18.4685 108.217 18.8546C108.217 19.2407 107.963 19.5238 107.596 19.5238C107.203 19.5238 106.963 19.2278 106.963 18.8546ZM108.647 17.7992H108.191V18.0566C108.052 17.8636 107.837 17.7477 107.533 17.7477C106.95 17.7477 106.494 18.2111 106.494 18.8546C106.494 19.4981 106.95 19.9614 107.533 19.9614C107.824 19.9614 108.039 19.8456 108.191 19.6525V19.9099H108.647V17.7992ZM106.101 19.9099V18.5843C106.101 18.0824 105.785 17.7477 105.278 17.7477C105.012 17.7477 104.733 17.825 104.543 18.121C104.404 17.8893 104.176 17.7477 103.859 17.7477C103.644 17.7477 103.416 17.8121 103.251 18.0566V17.7992H102.795V19.9099H103.251V18.7387C103.251 18.3784 103.454 18.1725 103.758 18.1725C104.062 18.1725 104.214 18.3655 104.214 18.7259V19.897H104.67V18.7259C104.67 18.3655 104.885 18.1596 105.177 18.1596C105.481 18.1596 105.633 18.3526 105.633 18.713V19.8842H106.101V19.9099Z" fill="#555F7F"/>
<path d="M120.326 19.7941H120.377C120.389 19.7941 120.402 19.7941 120.402 19.7812C120.415 19.7812 120.415 19.7683 120.415 19.7555C120.415 19.7426 120.415 19.7426 120.402 19.7426C120.402 19.7426 120.389 19.7297 120.377 19.7297H120.326V19.7941ZM120.377 19.7169C120.402 19.7169 120.415 19.7169 120.427 19.7297C120.44 19.7426 120.453 19.7555 120.453 19.7812C120.453 19.7941 120.453 19.807 120.44 19.8198C120.427 19.8327 120.415 19.8327 120.389 19.8327L120.453 19.9099H120.402L120.339 19.8327H120.326V19.9099H120.288V19.7169H120.377ZM120.364 19.9743C120.389 19.9743 120.402 19.9743 120.427 19.9614C120.453 19.9485 120.465 19.9357 120.478 19.9228C120.491 19.9099 120.503 19.897 120.516 19.8713C120.529 19.8456 120.529 19.8327 120.529 19.807C120.529 19.7812 120.529 19.7683 120.516 19.7426C120.503 19.7169 120.491 19.704 120.478 19.6911C120.465 19.6783 120.453 19.6654 120.427 19.6525C120.415 19.6396 120.389 19.6396 120.364 19.6396C120.339 19.6396 120.326 19.6396 120.301 19.6525C120.275 19.6654 120.263 19.6783 120.25 19.6911C120.237 19.704 120.225 19.7297 120.212 19.7426C120.199 19.7683 120.199 19.7812 120.199 19.807C120.199 19.8327 120.199 19.8456 120.212 19.8713C120.225 19.897 120.237 19.9099 120.25 19.9228C120.263 19.9357 120.288 19.9485 120.301 19.9614C120.326 19.9743 120.339 19.9743 120.364 19.9743ZM120.364 19.601C120.389 19.601 120.415 19.601 120.44 19.6139C120.465 19.6268 120.491 19.6396 120.503 19.6525C120.516 19.6654 120.541 19.6911 120.554 19.7169C120.567 19.7426 120.567 19.7683 120.567 19.7941C120.567 19.8198 120.567 19.8456 120.554 19.8713C120.541 19.897 120.529 19.9228 120.503 19.9357C120.478 19.9485 120.465 19.9743 120.44 19.9871C120.415 20 120.389 20 120.364 20C120.339 20 120.301 20 120.275 19.9871C120.25 19.9743 120.225 19.9614 120.212 19.9357C120.199 19.9228 120.174 19.897 120.161 19.8713C120.149 19.8456 120.149 19.8198 120.149 19.7941C120.149 19.7683 120.149 19.7426 120.161 19.7169C120.174 19.6911 120.187 19.6654 120.212 19.6525C120.225 19.6396 120.25 19.6139 120.275 19.6139C120.301 19.601 120.339 19.601 120.364 19.601Z" fill="#555F7F"/>
<path fill-rule="evenodd" clip-rule="evenodd" d="M111.333 14.2085H114.753V1.69884H111.333H107.9V14.2085H111.333ZM111.333 14.2085C113.157 12.7542 114.322 10.4891 114.322 7.95367C114.322 5.41828 113.157 3.15315 111.333 1.69884C109.509 3.15315 108.343 5.41828 108.343 7.95367C108.343 10.4891 109.509 12.7542 111.333 14.2085Z" fill="#555F7F"/>
<path d="M172.603 19.9992H146.043C145.501 19.9992 144.982 19.7884 144.598 19.4134C144.215 19.0383 144 18.5295 144 17.9991V9.5854H145.472L145.804 8.7987H146.547L146.878 9.58207H149.774V8.98621L150.033 9.58623H151.536L151.795 8.97621V9.58457H158.991V8.29785H159.127C159.224 8.30118 159.252 8.30951 159.252 8.46785V9.58623H162.975V9.28705C163.356 9.47623 163.804 9.58707 164.28 9.58707L164.361 9.58623H164.357H165.923L166.259 8.80287H167.002L167.329 9.58623H170.348V8.8412L170.804 9.58623H173.219V4.66603H170.829V5.24689L170.495 4.66603H168.038V5.24689L167.73 4.66603H164.413C163.91 4.64116 163.41 4.74242 162.958 4.96021L162.976 4.95271V4.66603H160.688V4.95271C160.411 4.73899 160.061 4.63676 159.71 4.66686H159.715H151.353L150.792 5.93775L150.215 4.66686H147.581V5.24772L147.291 4.66686H145.044L144.003 7.00029V2.00008C144.003 1.46963 144.218 0.960899 144.601 0.585811C144.984 0.210722 145.504 0 146.046 0H172.606C173.148 0 173.667 0.210722 174.05 0.585811C174.434 0.960899 174.649 1.46963 174.649 2.00008V10.7338H173.054C173.029 10.7321 172.998 10.7321 172.968 10.7321C172.599 10.7321 172.256 10.8405 171.97 11.0263L171.977 11.0221V10.7338H169.619C169.25 10.7139 168.886 10.8163 168.584 11.0246L168.589 11.0213V10.7329H164.379V11.0213C164.034 10.831 163.645 10.7316 163.249 10.7329H163.216H163.218H160.44V11.0213C160.077 10.7937 159.646 10.6924 159.218 10.7338L159.225 10.7329H156.117L155.406 11.4863L154.74 10.7329H150.097V15.6565H154.653L155.386 14.8915L156.076 15.6565H158.885V14.5039H159.276C159.653 14.5183 160.028 14.4568 160.38 14.3231L160.361 14.3298V15.6582H162.676V14.3756H162.788C162.929 14.3756 162.944 14.3806 162.944 14.5206V15.659H169.98L170.066 15.6607C170.47 15.6607 170.846 15.5423 171.159 15.3398L171.152 15.344V15.659H173.384L173.49 15.6607C173.908 15.6607 174.306 15.5765 174.667 15.424L174.647 15.4315V17.9999C174.647 18.5304 174.432 19.0391 174.049 19.4142C173.666 19.7893 173.146 20 172.604 20L172.603 19.9992ZM161.966 14.9665H161.1V11.4371H163.088C163.448 11.4046 163.809 11.4637 164.138 11.6088L164.124 11.6038C164.391 11.7472 164.569 12.0205 164.569 12.3338L164.567 12.3897V12.3872L164.568 12.4189C164.568 12.8239 164.318 13.1722 163.961 13.3239L163.954 13.3264C164.125 13.3864 164.268 13.4889 164.375 13.6214L164.376 13.6231C164.497 13.8178 164.547 14.0463 164.519 14.2723L164.52 14.2673V14.9656H163.655V14.5239C163.696 14.2835 163.647 14.0366 163.517 13.8289L163.519 13.8331C163.429 13.7663 163.326 13.7181 163.217 13.6913C163.108 13.6645 162.994 13.6597 162.882 13.6772L162.887 13.6764H161.966V14.9665ZM161.966 12.1663V12.9589H163.013C163.161 12.9722 163.31 12.9463 163.444 12.8839L163.439 12.8864C163.494 12.8517 163.539 12.8042 163.57 12.7482C163.601 12.6922 163.618 12.6294 163.618 12.5655L163.617 12.5464C163.621 12.4827 163.607 12.4199 163.576 12.3639C163.545 12.3078 163.498 12.2616 163.441 12.2305L163.439 12.2297C163.31 12.1731 163.168 12.1502 163.027 12.163H163.03L161.966 12.1663ZM154.284 14.9656H150.872V11.4371H154.337L155.397 12.5939L156.493 11.4371H159.245C160.222 11.4371 160.697 11.818 160.697 12.5997C160.697 13.3956 160.206 13.7822 159.199 13.7822H158.122V14.9648H156.447L155.387 13.7989L154.284 14.9656ZM157.264 11.8155L155.941 13.2072L157.264 14.6439V11.8155ZM151.731 13.5281V14.2298H153.849L154.828 13.1947L153.887 12.1663H151.731V12.808H153.622V13.5272L151.731 13.5281ZM158.122 12.1672V13.0655H159.235C159.575 13.0655 159.771 12.8955 159.771 12.5989C159.771 12.3155 159.589 12.1663 159.244 12.1663L158.122 12.1672ZM173.477 14.9673H171.814V14.2089H173.471C173.595 14.2257 173.72 14.1939 173.82 14.1206L173.82 14.1214C173.852 14.0924 173.877 14.0572 173.895 14.018C173.912 13.9789 173.921 13.9366 173.921 13.8939V13.8806C173.921 13.8384 173.912 13.7967 173.894 13.7584C173.876 13.7201 173.849 13.6862 173.816 13.6589C173.728 13.5966 173.619 13.5686 173.511 13.5806H173.513L173.354 13.5756C172.576 13.5556 171.695 13.5322 171.695 12.488C171.695 11.9797 172.02 11.4371 172.93 11.4371H174.647V12.1888H173.076C172.955 12.1755 172.833 12.1994 172.726 12.2572L172.729 12.2555C172.687 12.2826 172.653 12.3203 172.631 12.3645C172.609 12.4088 172.6 12.4581 172.604 12.5072V12.5064V12.5155C172.604 12.5717 172.622 12.6264 172.656 12.6719C172.689 12.7174 172.737 12.7513 172.791 12.7689L172.793 12.7697C172.901 12.8023 173.014 12.8158 173.127 12.8097H173.124L173.591 12.8214C173.944 12.787 174.296 12.8896 174.571 13.1072L174.569 13.1055C174.594 13.1255 174.616 13.1472 174.636 13.1714L174.637 13.1722L174.647 14.5156C174.504 14.6794 174.322 14.8062 174.117 14.8848C173.912 14.9634 173.69 14.9915 173.471 14.9665L173.477 14.9673ZM170.116 14.9673H168.437V14.2089H170.107C170.232 14.2249 170.359 14.1933 170.46 14.1206L170.459 14.1214C170.491 14.0923 170.516 14.057 170.533 14.0179C170.55 13.9788 170.559 13.9366 170.559 13.8939V13.8856C170.559 13.8427 170.55 13.8003 170.532 13.7612C170.514 13.7221 170.487 13.6873 170.455 13.6589C170.365 13.5965 170.255 13.5686 170.145 13.5806H170.147L169.989 13.5756C169.213 13.5556 168.333 13.5322 168.333 12.488C168.333 11.9797 168.657 11.4371 169.565 11.4371H171.291V12.1888H169.711C169.591 12.1757 169.469 12.1996 169.363 12.2572L169.367 12.2555C169.322 12.2856 169.286 12.327 169.264 12.3753C169.241 12.4236 169.232 12.477 169.238 12.5298C169.244 12.5827 169.264 12.633 169.296 12.6755C169.329 12.718 169.373 12.7511 169.423 12.7714L169.424 12.7722C169.534 12.805 169.648 12.8186 169.762 12.8122H169.76L170.224 12.8239C170.578 12.7905 170.932 12.8933 171.21 13.1105L171.207 13.108C171.301 13.209 171.372 13.3279 171.416 13.4571C171.46 13.5863 171.477 13.7232 171.464 13.8589V13.8547C171.467 14.5906 171.011 14.9656 170.113 14.9656L170.116 14.9673ZM167.921 14.9673H165.044V11.4363H167.919V12.1655H165.904V12.8072H167.872V13.5264H165.904V14.2281L167.921 14.2314V14.9673ZM169.598 8.89537H167.844L167.508 8.10867H165.719L165.394 8.89537H164.386C163.933 8.91873 163.487 8.77911 163.133 8.50286L163.137 8.50535C162.968 8.32328 162.84 8.10882 162.761 7.87565C162.682 7.64249 162.653 7.39574 162.677 7.15113L162.676 7.1578C162.654 6.90869 162.684 6.65782 162.765 6.42043C162.845 6.18305 162.974 5.9641 163.143 5.77691L163.141 5.77857C163.32 5.62555 163.529 5.51019 163.755 5.43965C163.981 5.36911 164.22 5.34491 164.456 5.36856L164.45 5.36772H165.284V6.12026H164.467C164.347 6.10518 164.225 6.1161 164.111 6.15226C163.996 6.18842 163.891 6.24891 163.803 6.32943L163.803 6.3286C163.621 6.55678 163.533 6.8433 163.556 7.13196V7.1278C163.529 7.42437 163.614 7.72036 163.795 7.9595L163.792 7.95617C163.962 8.09156 164.178 8.15677 164.396 8.13784H164.393H164.779L165.997 5.36272H167.291L168.749 8.6962V5.36272H170.061L171.575 7.81949V5.36272H172.46V8.88954H171.231L169.596 6.24109V8.88954L169.598 8.89537ZM166.619 5.96358L166.026 7.37031H167.215L166.619 5.96358ZM158.278 8.8937H157.416V5.36522H159.398C159.76 5.32848 160.125 5.38868 160.454 5.5394L160.442 5.5344C160.574 5.60612 160.685 5.71127 160.762 5.83892C160.839 5.96656 160.879 6.11205 160.879 6.26026L160.878 6.3186V6.3161V6.34193C160.878 6.5344 160.821 6.7228 160.714 6.88452C160.608 7.04624 160.456 7.1744 160.277 7.25364L160.27 7.25614C160.441 7.31947 160.585 7.42114 160.695 7.55115L160.696 7.55281C160.818 7.7483 160.868 7.97835 160.838 8.20534L160.839 8.20034V8.89287H159.97L159.967 8.44785V8.38118C159.998 8.16359 159.948 7.94232 159.828 7.75699L159.83 7.76116C159.74 7.69631 159.638 7.6496 159.529 7.62371C159.421 7.59782 159.308 7.59327 159.197 7.61032L159.202 7.60948H158.279V8.89287L158.278 8.8937ZM158.278 6.09942V6.88279H159.323C159.471 6.89847 159.62 6.87244 159.753 6.80778L159.749 6.80945C159.803 6.777 159.848 6.73136 159.88 6.67692C159.911 6.62249 159.927 6.56108 159.928 6.4986L159.927 6.47527C159.931 6.41195 159.916 6.3496 159.884 6.29436C159.852 6.23913 159.805 6.19424 159.747 6.16526L159.745 6.16442C159.616 6.11001 159.475 6.08714 159.334 6.09775H159.337L158.278 6.09942ZM149.155 8.8937H147.405L147.074 8.10701H145.279L144.946 8.8937H144.009L145.553 5.36522H146.832L148.297 8.70453V5.36522H149.703L150.83 7.75782L151.866 5.36522H153.3V8.89204H152.415L152.413 6.13192L151.164 8.89287H150.408L149.156 6.12776V8.89287L149.155 8.8937ZM146.172 5.96358L145.586 7.37031H146.762L146.172 5.96358ZM162.252 8.89287H161.373V5.36522H162.252V8.89204L162.252 8.89287ZM156.815 8.89287H153.943V5.36522H156.82V6.09859H154.805V6.73445H156.772V7.45864H154.803V8.16367H156.819V8.89204L156.815 8.89287Z" fill="#555F7F"/>
<path d="M196.155 0C195.333 0 194.666 0.662866 194.666 1.48089V18.5191C194.666 19.3372 195.333 20 196.155 20H225.178C226 20 226.666 19.3371 226.666 18.5191V1.48089C226.666 0.662771 226 0 225.178 0H196.155ZM211.513 5.62997C211.535 5.62943 211.556 5.62997 211.578 5.62997C212.975 5.62997 214.108 6.75694 214.108 8.1479C214.108 9.53882 212.975 10.6668 211.578 10.6668C210.181 10.6668 209.048 9.53882 209.048 8.1479C209.048 6.77869 210.146 5.66446 211.513 5.62997ZM203.527 5.74045C204.029 5.74045 204.488 5.91178 204.872 6.24602L204.405 6.8551C204.172 6.59548 203.952 6.48586 203.685 6.48586C203.3 6.48586 203.02 6.70354 203.02 6.99045C203.02 7.2365 203.177 7.36739 203.713 7.56468C204.728 7.93433 205.029 8.2621 205.029 8.98586C205.029 9.86787 204.379 10.4817 203.451 10.4817C202.772 10.4817 202.277 10.2148 201.866 9.61385L202.443 9.0615C202.648 9.4572 202.991 9.6686 203.417 9.6686C203.815 9.6686 204.11 9.39576 204.11 9.02669C204.11 8.83535 204.021 8.67096 203.843 8.55494C203.753 8.50003 203.575 8.41787 203.226 8.29519C202.388 7.99471 202.1 7.67385 202.1 7.04618C202.1 6.30057 202.717 5.74045 203.527 5.74045ZM207.726 5.74045C208.11 5.74045 208.433 5.82213 208.825 6.01911V7.06013C208.454 6.70032 208.131 6.54955 207.705 6.54955C206.868 6.54955 206.21 7.23729 206.21 8.10809C206.21 9.02672 206.848 9.67258 207.747 9.67258C208.152 9.67258 208.468 9.52994 208.825 9.17596V10.217C208.419 10.4064 208.089 10.4817 207.705 10.4817C206.346 10.4817 205.29 9.44729 205.29 8.11405C205.29 6.79516 206.374 5.74045 207.726 5.74045H207.726ZM196.434 5.8151H197.754C199.213 5.8151 200.229 6.74369 200.229 8.07723C200.229 8.74217 199.918 9.38525 199.392 9.81191C198.949 10.172 198.445 10.3334 197.747 10.3334H196.434V5.8151ZM200.638 5.8151H201.494V10.3334H200.638V5.8151ZM213.736 5.8151H214.709L215.927 8.87143L217.161 5.81506H218.127L216.154 10.4817H215.674L213.736 5.8151ZM218.499 5.8151H221.029V6.58041H219.39V7.5836H220.969V8.34892H219.39V9.56806H221.029V10.3334H218.499V5.8151ZM221.662 5.8151H222.988C224.02 5.8151 224.612 6.30274 224.612 7.14869C224.612 7.84051 224.241 8.29443 223.567 8.42955L225.011 10.3334H223.91L222.672 8.51809H222.555V10.3334H221.662V5.8151ZM222.561 6.52669V7.90207H222.82C223.386 7.90207 223.686 7.65685 223.686 7.20045C223.686 6.7586 223.386 6.52669 222.834 6.52669H222.561ZM197.333 6.57643V9.57207H197.574C198.156 9.57207 198.524 9.46261 198.807 9.21178C199.119 8.93978 199.305 8.50522 199.305 8.07026C199.305 7.63634 199.119 7.21484 198.807 6.94268C198.51 6.67834 198.156 6.57643 197.574 6.57643H197.333ZM226.276 10.8499C226.276 10.8499 226.285 15.7025 226.265 18.2534C226.263 18.4766 226.181 18.83 225.926 19.1242C225.671 19.4184 225.274 19.556 225.037 19.5551C224.8 19.5543 201.866 19.5551 201.866 19.5551C217.607 16.8527 226.276 10.8499 226.276 10.8499Z" fill="#555F7F"/>
</g>
</svg>
