<svg width="110" height="20" viewBox="0 0 110 20" fill="none" xmlns="http://www.w3.org/2000/svg">
<path d="M12.24 8.55858C11.93 9.79858 10 9.16858 9.4 8.99858L9.95 6.81858C10.57 6.99858 12.56 7.25858 12.24 8.55858ZM9.13 10.1186L8.53 12.5286C9.27 12.7186 11.56 13.4486 11.9 12.0886C12.26 10.6686 9.87 10.2986 9.13 10.1186ZM19.7 12.4186C18.36 17.7786 12.94 21.0386 7.58 19.6986C2.22 18.3586 -1.037 12.9386 0.300001 7.57858C0.617644 6.30467 1.18313 5.10581 1.96417 4.05047C2.74521 2.99514 3.72649 2.10401 4.85198 1.42797C5.97747 0.751938 7.22511 0.304243 8.52365 0.110459C9.82218 -0.083325 11.1462 -0.0194022 12.42 0.298577C17.77 1.63858 21.03 7.05858 19.7 12.4186ZM12.21 6.04858L12.66 4.24858L11.56 3.99858L11.12 5.72858C10.83 5.65858 10.54 5.58858 10.24 5.52858L10.68 3.75858L9.59 3.49858L9.14 5.28858C8.9 5.22858 8.66 5.17858 8.44 5.11858L6.93 4.73858L6.63 5.90858C6.63 5.90858 7.45 6.09858 7.43 6.10858C7.88 6.21858 7.96 6.49858 7.94 6.74858L6.71 11.6786C6.66 11.8186 6.5 11.9986 6.21 11.9486C6.22 11.9586 5.41 11.7486 5.41 11.7486L4.87 12.9986L6.29 13.3586C6.56 13.4286 6.82 13.4986 7.08 13.5586L6.62 15.3786L7.72 15.6586L8.17 13.8486C8.47 13.9286 8.76 13.9986 9.04 14.0786L8.59 15.8686L9.69 16.1486L10.15 14.3286C12 14.6786 13.42 14.5386 14 12.8486C14.5 11.4986 14 10.6986 13 10.1886C13.72 9.99858 14.26 9.54858 14.41 8.56858C14.61 7.23858 13.59 6.52858 12.21 6.04858Z" fill="white"/>
<path fill-rule="evenodd" clip-rule="evenodd" d="M40.665 20C35.1419 20 30.665 15.5231 30.665 10C30.665 4.47688 35.1419 0 40.665 0C46.1882 0 50.665 4.47688 50.665 10C50.665 15.5231 46.1882 20 40.665 20ZM45.6613 10.1369L40.9763 2.5L36.29 10.1375L40.9763 12.8581L45.6613 10.1369ZM45.665 11.01L40.9763 13.7294L36.29 11.0106L40.9763 17.4969L45.665 11.01Z" fill="white"/>
<path fill-rule="evenodd" clip-rule="evenodd" d="M45.6619 10.1375L40.9763 12.8581L45.6613 10.1369L45.6619 10.1375Z" fill="white"/>
<path fill-rule="evenodd" clip-rule="evenodd" d="M45.6613 10.1369L45.6619 10.1375L40.9763 2.5L45.6613 10.1369Z" fill="white"/>
<path d="M64.007 8.32986C62.1004 8.32986 61.8279 9.55362 61.6487 10.2953C61.5336 10.7475 61.428 11.2021 61.332 11.6586H68.7878C70.6961 11.6586 70.9686 10.4332 71.1477 9.69242C71.3852 8.72491 71.4636 8.32904 71.4636 8.32904L64.007 8.32986ZM74.4319 2H67.1503L66.5486 5.32385L73.1185 5.33207C76.356 5.33207 77.3102 6.49012 77.2827 8.41035C77.2668 9.39264 76.8352 11.0591 76.6477 11.6003C76.1493 13.0401 75.1252 14.6794 71.2852 14.6753L64.897 14.672L64.2928 18H71.5577C74.1202 18 75.2077 17.7043 76.3635 17.1828C78.9226 16.0116 80.4468 13.5238 81.0576 10.2756C81.9651 5.43966 80.8343 2 74.4319 2Z" fill="white"/>
<path fill-rule="evenodd" clip-rule="evenodd" d="M92.1704 0.205896C92.2503 0.122218 92.3523 0.0606007 92.4657 0.0275205C92.5792 -0.00555971 92.6999 -0.00888216 92.8151 0.0179025L106.68 3.25579C106.764 3.27446 106.84 3.30846 106.91 3.35779L109.731 5.32072C109.868 5.41692 109.961 5.56 109.99 5.72006C110.019 5.88013 109.983 6.04481 109.888 6.17969L100.182 19.7252C100.113 19.8213 100.019 19.8973 99.9078 19.9449C99.797 19.9925 99.6744 20.0098 99.5539 19.9947C99.4334 19.9797 99.3196 19.9329 99.2253 19.8597C99.131 19.7865 99.06 19.6898 99.02 19.5802L92.0373 0.836875C91.998 0.730222 91.9896 0.615458 92.0128 0.504617C92.0361 0.393776 92.0901 0.290942 92.1694 0.206896M94.4589 3.58978L99.3041 16.6023L100.101 9.85957L94.4589 3.58978ZM101.399 10.0766L100.589 16.9363L107.442 7.37065L101.399 10.0766ZM108.061 5.70971L103.645 7.68664L106.603 4.69674L108.061 5.70971ZM105.27 4.21776L94.4903 1.69985L100.811 8.71961L105.27 4.21776Z" fill="white"/>
</svg>
