<svg width="40" height="40" viewBox="0 0 40 40" fill="none" xmlns="http://www.w3.org/2000/svg">
<path fill-rule="evenodd" clip-rule="evenodd" d="M26.6959 6.47289C26.8052 6.30453 26.964 6.17102 27.1523 6.08924C27.3407 6.00746 27.55 5.98108 27.754 6.01344L33.1303 6.87416C33.4037 6.91791 33.6478 7.06399 33.8089 7.28032C33.9701 7.49664 34.0352 7.7655 33.9898 8.02781L33.0948 13.1881C33.0606 13.3838 32.9668 13.5653 32.8252 13.7097C32.6835 13.8542 32.5004 13.9551 32.299 13.9998C32.0976 14.0445 31.8869 14.0308 31.6936 13.9607C31.5002 13.8905 31.3329 13.7669 31.2128 13.6055L29.7615 11.6593L22.2877 16.2418C21.969 16.4375 21.5873 16.516 21.213 16.4629C20.8387 16.4098 20.497 16.2287 20.251 15.9529L16.0833 11.2781L8.28959 15.1203C7.91966 15.3028 7.48932 15.3368 7.09324 15.2149C6.69715 15.093 6.36776 14.8251 6.17753 14.4702C5.9873 14.1153 5.95181 13.7024 6.07887 13.3224C6.20593 12.9423 6.48514 12.6263 6.85506 12.4438L15.7529 8.0559C16.067 7.90106 16.4264 7.85248 16.7729 7.91802C17.1194 7.98357 17.4327 8.1594 17.6621 8.41704L21.7482 13.0016L27.938 9.20554L26.7314 7.58642C26.6115 7.42496 26.5441 7.23301 26.5377 7.03482C26.5314 6.83664 26.5864 6.64109 26.6959 6.47289ZM13.0072 16.3241L6.9387 19.6546C6.69897 19.786 6.49963 19.9758 6.36083 20.2048C6.22204 20.4338 6.14871 20.6938 6.14825 20.9587V32.4952C6.14825 33.3259 6.85088 34 7.71661 34H13.0072V16.3241ZM15.6212 34H23.2915V20.3328L19.8432 21.986L16.397 16.1997C16.2229 15.9054 15.9502 15.6763 15.6232 15.5496L15.6212 34ZM31.7648 34H25.9054V19.0788L31.0643 16.6029C31.3034 16.4884 31.569 16.4344 31.836 16.446C32.103 16.4577 32.3625 16.5346 32.5897 16.6695C32.817 16.8043 33.0047 16.9927 33.1348 17.2167C33.2649 17.4406 33.3332 17.6928 33.3332 17.9492V32.4952C33.3332 32.8943 33.1679 33.2771 32.8738 33.5593C32.5797 33.8415 32.1808 34 31.7648 34Z" fill="url(#paint0_linear_599_33490)"/>
<defs>
<linearGradient id="paint0_linear_599_33490" x1="34.0039" y1="10.6667" x2="8.21795" y2="18.2225" gradientUnits="userSpaceOnUse">
<stop stop-color="#1095ED"/>
<stop offset="1" stop-color="#E2435F"/>
</linearGradient>
</defs>
</svg>
