<svg width="24" height="24" viewBox="0 0 24 24" fill="none" xmlns="http://www.w3.org/2000/svg">
<path fill-rule="evenodd" clip-rule="evenodd" d="M22.0931 9.43318C22.0232 9.42981 21.9531 9.42861 21.8831 9.42958H18.9609C16.5704 9.42958 14.5231 11.3269 14.5231 13.8014C14.5231 16.2759 16.5704 18.1732 18.9621 18.1732H21.8819C21.9551 18.1732 22.0259 18.1732 22.0919 18.1684C22.5853 18.1369 23.0505 17.9271 23.4007 17.578C23.7508 17.2289 23.9621 16.7645 23.9952 16.2711C24 16.2003 24 16.1247 24 16.0551V11.5477C24 11.4781 24 11.4025 23.9952 11.3317C23.9622 10.8385 23.751 10.3742 23.4011 10.0252C23.0512 9.67613 22.5863 9.46616 22.0931 9.43438M18.7053 14.9679C19.321 14.9679 19.8214 14.447 19.8214 13.8026C19.8214 13.1582 19.321 12.6373 18.7053 12.6373C18.0897 12.6373 17.5905 13.1582 17.5905 13.8026C17.5905 14.447 18.0885 14.9679 18.7053 14.9679Z" fill="url(#paint0_linear_7103_7991)"/>
<path fill-rule="evenodd" clip-rule="evenodd" d="M21.8819 19.9217C21.9221 19.9203 21.9621 19.9283 21.9986 19.9452C22.0351 19.9621 22.0672 19.9873 22.0921 20.0188C22.1171 20.0504 22.1344 20.0873 22.1425 20.1267C22.1505 20.1661 22.1493 20.2069 22.1387 20.2457C21.9059 21.0762 21.5375 21.7842 20.9458 22.3794C20.0806 23.2519 18.9825 23.6395 17.6265 23.8231C16.3088 24.0019 14.6263 24.0019 12.4998 24.0019H10.0553C7.93 24.0019 6.24631 24.0019 4.92865 23.8231C3.57258 23.6395 2.47452 23.2519 1.60928 22.3794C0.744037 21.5094 0.360018 20.4017 0.177609 19.0361C0 17.7064 0 16.0095 0 13.8674V13.7354C0 11.5933 0 9.8952 0.177609 8.56793C0.360018 7.20107 0.744037 6.09701 1.60808 5.22217C2.47332 4.35092 3.57138 3.9621 4.92745 3.77969C6.24631 3.60089 7.93 3.60089 10.0553 3.60089H12.4998C14.6251 3.60089 16.3088 3.60089 17.6265 3.77969C18.9825 3.9633 20.0806 4.35092 20.9458 5.22217C21.5375 5.8186 21.9059 6.52663 22.1387 7.35827C22.149 7.39702 22.1501 7.43764 22.142 7.47689C22.1338 7.51614 22.1165 7.55293 22.0915 7.58431C22.0666 7.61568 22.0346 7.64078 21.9982 7.65759C21.9618 7.67439 21.922 7.68244 21.8819 7.68109H18.9621C15.6812 7.68109 12.7902 10.2936 12.7902 13.8014C12.7902 17.3092 15.6824 19.9217 18.9633 19.9217H21.8819ZM4.33702 8.26432C4.22276 8.26479 4.10972 8.28776 4.00434 8.33192C3.89896 8.37608 3.80331 8.44057 3.72286 8.52169C3.6424 8.60282 3.57871 8.699 3.53542 8.80474C3.49214 8.91048 3.4701 9.02371 3.47057 9.13796C3.47057 9.62159 3.85819 10.0128 4.33702 10.0128H8.96445C9.44447 10.0128 9.83209 9.62159 9.83209 9.13796C9.83273 8.9071 9.74171 8.68543 9.57903 8.52162C9.41635 8.35781 9.19531 8.26527 8.96445 8.26432H4.33702Z" fill="url(#paint1_linear_7103_7991)"/>
<path d="M6.93275 2.42963L9.28246 0.697941C9.89562 0.244635 10.638 0 11.4006 0C12.1631 0 12.9055 0.244635 13.5187 0.697941L15.8816 2.43923C14.8927 2.40083 13.7887 2.40083 12.5802 2.40083H9.9761C8.86964 2.40083 7.85319 2.40083 6.93275 2.42963Z" fill="url(#paint2_linear_7103_7991)"/>
<defs>
<linearGradient id="paint0_linear_7103_7991" x1="24" y1="4.00032" x2="1.89747" y2="10.4763" gradientUnits="userSpaceOnUse">
<stop stop-color="#1095ED"/>
<stop offset="1" stop-color="#E2435F"/>
</linearGradient>
<linearGradient id="paint1_linear_7103_7991" x1="24" y1="4.00032" x2="1.89747" y2="10.4763" gradientUnits="userSpaceOnUse">
<stop stop-color="#1095ED"/>
<stop offset="1" stop-color="#E2435F"/>
</linearGradient>
<linearGradient id="paint2_linear_7103_7991" x1="24" y1="4.00032" x2="1.89747" y2="10.4763" gradientUnits="userSpaceOnUse">
<stop stop-color="#1095ED"/>
<stop offset="1" stop-color="#E2435F"/>
</linearGradient>
</defs>
</svg>
