<svg width="30" height="30" viewBox="0 0 30 30" fill="none" xmlns="http://www.w3.org/2000/svg">
<path d="M9.13043 15C12 15 14.3478 12.6375 14.3478 9.75C14.3478 6.8625 12 4.5 9.13043 4.5C6.26087 4.5 3.91304 6.8625 3.91304 9.75C3.91304 12.6375 6.26087 15 9.13043 15ZM14.3478 25.5V18.5437C12.913 18.0188 11.087 17.625 9.13043 17.625C4.04348 17.625 0 19.9875 0 22.875V25.5H14.3478ZM27.3913 4.5H19.5652C18.1304 4.5 16.9565 5.68125 16.9565 7.125V22.875C16.9565 24.3188 18.1304 25.5 19.5652 25.5H27.3913C28.8261 25.5 30 24.3188 30 22.875V7.125C30 5.68125 28.8261 4.5 27.3913 4.5ZM23.4783 22.875H20.8696V7.125H23.4783V22.875Z" fill="url(#paint0_linear_7103_27437)"/>
<defs>
<linearGradient id="paint0_linear_7103_27437" x1="30" y1="8" x2="4.47307" y2="18.6857" gradientUnits="userSpaceOnUse">
<stop stop-color="#1095ED"/>
<stop offset="1" stop-color="#E2435F"/>
</linearGradient>
</defs>
</svg>
