<svg width="30" height="30" viewBox="0 0 30 30" fill="none" xmlns="http://www.w3.org/2000/svg">
<path fill-rule="evenodd" clip-rule="evenodd" d="M17.5714 3H12.4286V10.728C12.4286 10.9509 12.5229 11.1651 12.6926 11.3246C12.8662 11.4846 13.0941 11.5729 13.3303 11.5714H16.6697C16.9097 11.5714 17.1377 11.4823 17.3074 11.3246C17.39 11.2486 17.4561 11.1564 17.5015 11.0538C17.5469 10.9511 17.5707 10.8402 17.5714 10.728V3ZM10.2857 3H5.57143C4.88944 3 4.23539 3.27092 3.75315 3.75315C3.27092 4.23539 3 4.88944 3 5.57143L3 24.4286C3 25.1106 3.27092 25.7646 3.75315 26.2468C4.23539 26.7291 4.88944 27 5.57143 27H24.4286C25.1106 27 25.7646 26.7291 26.2468 26.2468C26.7291 25.7646 27 25.1106 27 24.4286V5.57143C27 4.88944 26.7291 4.23539 26.2468 3.75315C25.7646 3.27092 25.1106 3 24.4286 3H19.7143V10.728C19.7143 11.568 19.3577 12.3394 18.7714 12.888C18.192 13.4314 17.4343 13.7143 16.6697 13.7143H13.3303C12.5657 13.7143 11.808 13.4314 11.2286 12.888C10.9319 12.6117 10.6951 12.2774 10.5329 11.9059C10.3708 11.5343 10.2866 11.1334 10.2857 10.728V3ZM18.0171 22.0286C18.0171 21.4354 18.4971 20.9554 19.0869 20.9554H22.5394C22.8236 20.9554 23.0961 21.0683 23.297 21.2692C23.498 21.4702 23.6109 21.7427 23.6109 22.0269C23.6109 22.311 23.498 22.5835 23.297 22.7845C23.0961 22.9854 22.8236 23.0983 22.5394 23.0983H19.0869C18.8027 23.0983 18.5302 22.9854 18.3292 22.7845C18.1283 22.5835 18.0154 22.311 18.0154 22.0269L18.0171 22.0286Z" fill="url(#paint0_linear_7103_29204)"/>
<defs>
<linearGradient id="paint0_linear_7103_29204" x1="27" y1="7" x2="4.89775" y2="13.4765" gradientUnits="userSpaceOnUse">
<stop stop-color="#1095ED"/>
<stop offset="1" stop-color="#E2435F"/>
</linearGradient>
</defs>
</svg>
