<svg width="20" height="20" viewBox="0 0 20 20" fill="none" xmlns="http://www.w3.org/2000/svg">
<path d="M16.99 8.20143C16.7207 7.92 16.4421 7.63 16.3371 7.375C16.24 7.14143 16.2343 6.75429 16.2286 6.37929C16.2179 5.68214 16.2064 4.89214 15.6571 4.34286C15.1079 3.79357 14.3179 3.78214 13.6207 3.77143C13.2457 3.76571 12.8586 3.76 12.625 3.66286C12.3707 3.55786 12.08 3.27929 11.7986 3.01C11.3057 2.53643 10.7457 2 10 2C9.25429 2 8.695 2.53643 8.20143 3.01C7.92 3.27929 7.63 3.55786 7.375 3.66286C7.14286 3.76 6.75429 3.76571 6.37929 3.77143C5.68214 3.78214 4.89214 3.79357 4.34286 4.34286C3.79357 4.89214 3.78571 5.68214 3.77143 6.37929C3.76571 6.75429 3.76 7.14143 3.66286 7.375C3.55786 7.62929 3.27929 7.92 3.01 8.20143C2.53643 8.69429 2 9.25429 2 10C2 10.7457 2.53643 11.305 3.01 11.7986C3.27929 12.08 3.55786 12.37 3.66286 12.625C3.76 12.8586 3.76571 13.2457 3.77143 13.6207C3.78214 14.3179 3.79357 15.1079 4.34286 15.6571C4.89214 16.2064 5.68214 16.2179 6.37929 16.2286C6.75429 16.2343 7.14143 16.24 7.375 16.3371C7.62929 16.4421 7.92 16.7207 8.20143 16.99C8.69429 17.4636 9.25429 18 10 18C10.7457 18 11.305 17.4636 11.7986 16.99C12.08 16.7207 12.37 16.4421 12.625 16.3371C12.8586 16.24 13.2457 16.2343 13.6207 16.2286C14.3179 16.2179 15.1079 16.2064 15.6571 15.6571C16.2064 15.1079 16.2179 14.3179 16.2286 13.6207C16.2343 13.2457 16.24 12.8586 16.3371 12.625C16.4421 12.3707 16.7207 12.08 16.99 11.7986C17.4636 11.3057 18 10.7457 18 10C18 9.25429 17.4636 8.695 16.99 8.20143ZM13.2614 8.69L9.26143 12.69C9.20836 12.7431 9.14534 12.7853 9.07597 12.814C9.0066 12.8428 8.93224 12.8576 8.85714 12.8576C8.78205 12.8576 8.70769 12.8428 8.63832 12.814C8.56895 12.7853 8.50593 12.7431 8.45286 12.69L6.73857 10.9757C6.68548 10.9226 6.64336 10.8596 6.61463 10.7902C6.5859 10.7209 6.57111 10.6465 6.57111 10.5714C6.57111 10.4963 6.5859 10.422 6.61463 10.3526C6.64336 10.2833 6.68548 10.2202 6.73857 10.1671C6.84579 10.0599 6.99122 9.99968 7.14286 9.99968C7.21794 9.99968 7.29229 10.0145 7.36166 10.0432C7.43102 10.0719 7.49405 10.114 7.54714 10.1671L8.85714 11.4779L12.4529 7.88143C12.5059 7.82834 12.569 7.78622 12.6383 7.75749C12.7077 7.72876 12.7821 7.71397 12.8571 7.71397C12.9322 7.71397 13.0066 7.72876 13.0759 7.75749C13.1453 7.78622 13.2083 7.82834 13.2614 7.88143C13.3145 7.93452 13.3566 7.99755 13.3854 8.06692C13.4141 8.13628 13.4289 8.21063 13.4289 8.28571C13.4289 8.3608 13.4141 8.43514 13.3854 8.50451C13.3566 8.57388 13.3145 8.63691 13.2614 8.69Z" fill="white"/>
<path d="M13.2614 8.69L9.26143 12.69C9.20836 12.7431 9.14534 12.7853 9.07597 12.814C9.0066 12.8428 8.93224 12.8576 8.85714 12.8576C8.78205 12.8576 8.70769 12.8428 8.63832 12.814C8.56895 12.7853 8.50593 12.7431 8.45286 12.69L6.73857 10.9757C6.68548 10.9226 6.64336 10.8596 6.61463 10.7902C6.5859 10.7209 6.57111 10.6465 6.57111 10.5714C6.57111 10.4963 6.5859 10.422 6.61463 10.3526C6.64336 10.2833 6.68548 10.2202 6.73857 10.1671C6.84579 10.0599 6.99122 9.99968 7.14286 9.99968C7.21794 9.99968 7.29229 10.0145 7.36166 10.0432C7.43102 10.0719 7.49405 10.114 7.54714 10.1671L8.85714 11.4779L12.4529 7.88143C12.5059 7.82834 12.569 7.78622 12.6383 7.75749C12.7077 7.72876 12.7821 7.71397 12.8571 7.71397C12.9322 7.71397 13.0066 7.72876 13.0759 7.75749C13.1453 7.78622 13.2083 7.82834 13.2614 7.88143C13.3145 7.93452 13.3566 7.99755 13.3854 8.06692C13.4141 8.13628 13.4289 8.21063 13.4289 8.28571C13.4289 8.3608 13.4141 8.43514 13.3854 8.50451C13.3566 8.57388 13.3145 8.63691 13.2614 8.69Z" fill="white"/>
<path d="M16.99 8.20143C16.7207 7.92 16.4421 7.63 16.3371 7.375C16.24 7.14143 16.2343 6.75429 16.2286 6.37929C16.2179 5.68214 16.2064 4.89214 15.6571 4.34286C15.1079 3.79357 14.3179 3.78214 13.6207 3.77143C13.2457 3.76571 12.8586 3.76 12.625 3.66286C12.3707 3.55786 12.08 3.27929 11.7986 3.01C11.3057 2.53643 10.7457 2 10 2C9.25429 2 8.695 2.53643 8.20143 3.01C7.92 3.27929 7.63 3.55786 7.375 3.66286C7.14286 3.76 6.75429 3.76571 6.37929 3.77143C5.68214 3.78214 4.89214 3.79357 4.34286 4.34286C3.79357 4.89214 3.78571 5.68214 3.77143 6.37929C3.76571 6.75429 3.76 7.14143 3.66286 7.375C3.55786 7.62929 3.27929 7.92 3.01 8.20143C2.53643 8.69429 2 9.25429 2 10C2 10.7457 2.53643 11.305 3.01 11.7986C3.27929 12.08 3.55786 12.37 3.66286 12.625C3.76 12.8586 3.76571 13.2457 3.77143 13.6207C3.78214 14.3179 3.79357 15.1079 4.34286 15.6571C4.89214 16.2064 5.68214 16.2179 6.37929 16.2286C6.75429 16.2343 7.14143 16.24 7.375 16.3371C7.62929 16.4421 7.92 16.7207 8.20143 16.99C8.69429 17.4636 9.25429 18 10 18C10.7457 18 11.305 17.4636 11.7986 16.99C12.08 16.7207 12.37 16.4421 12.625 16.3371C12.8586 16.24 13.2457 16.2343 13.6207 16.2286C14.3179 16.2179 15.1079 16.2064 15.6571 15.6571C16.2064 15.1079 16.2179 14.3179 16.2286 13.6207C16.2343 13.2457 16.24 12.8586 16.3371 12.625C16.4421 12.3707 16.7207 12.08 16.99 11.7986C17.4636 11.3057 18 10.7457 18 10C18 9.25429 17.4636 8.695 16.99 8.20143ZM13.2614 8.69L9.26143 12.69C9.20836 12.7431 9.14534 12.7853 9.07597 12.814C9.0066 12.8428 8.93224 12.8576 8.85714 12.8576C8.78205 12.8576 8.70769 12.8428 8.63832 12.814C8.56895 12.7853 8.50593 12.7431 8.45286 12.69L6.73857 10.9757C6.68548 10.9226 6.64337 10.8596 6.61463 10.7902C6.5859 10.7209 6.57111 10.6465 6.57111 10.5714C6.57111 10.4963 6.5859 10.422 6.61463 10.3526C6.64337 10.2833 6.68548 10.2202 6.73857 10.1671C6.84579 10.0599 6.99122 9.99968 7.14286 9.99968C7.21794 9.99968 7.29229 10.0145 7.36166 10.0432C7.43102 10.0719 7.49405 10.1141 7.54714 10.1671L8.85714 11.4779L12.4529 7.88143C12.5059 7.82834 12.569 7.78622 12.6383 7.75749C12.7077 7.72876 12.7821 7.71397 12.8571 7.71397C12.9322 7.71397 13.0066 7.72876 13.0759 7.75749C13.1453 7.78622 13.2083 7.82834 13.2614 7.88143C13.3145 7.93452 13.3566 7.99755 13.3854 8.06692C13.4141 8.13628 13.4289 8.21063 13.4289 8.28571C13.4289 8.3608 13.4141 8.43514 13.3854 8.50451C13.3566 8.57388 13.3145 8.63691 13.2614 8.69Z" fill="#1095ED"/>
</svg>
