<svg width="40" height="40" viewBox="0 0 40 40" fill="none" xmlns="http://www.w3.org/2000/svg">
<path fill-rule="evenodd" clip-rule="evenodd" d="M19.9682 6.23394C19.1638 6.58966 18.7995 7.0338 18.3644 8.18935L18.0257 9.08903L18.2348 9.32316C18.3499 9.45196 21.1016 12.586 24.3499 16.2879L30.2557 23.0185L31.0365 22.9046C32.0923 22.7506 32.5695 22.5832 33.0433 22.2006C33.9469 21.4708 34.2497 20.2677 33.7823 19.2644C33.6118 18.8986 33.4631 18.7253 26.2867 10.5294C22.9042 6.6664 22.8701 6.63016 22.3475 6.34203C21.594 5.92673 20.7497 5.88833 19.9682 6.23394ZM16.1144 12.864C13.8868 16.6475 10.8871 20.1178 7.28693 23.0763C6.68109 23.5742 6.48233 23.7822 6.32329 24.0849C5.93098 24.8313 5.89473 25.6051 6.21994 26.2876C6.50777 26.8916 10.0079 30.8688 10.54 31.1965C11.0704 31.5231 11.7775 31.6458 12.4208 31.523C13.0374 31.4053 13.3463 31.2394 14.1901 30.5728C17.8287 27.6983 22.2714 25.3539 26.8511 23.8919L27.7399 23.6082L22.4361 17.5653C19.519 14.2417 17.0971 11.495 17.054 11.4617C17.0019 11.4213 16.6878 11.8902 16.1144 12.864ZM22.4812 27.1843C21.4208 27.7086 20.4375 28.2225 19.7867 28.5928C18.6588 29.2345 17.4326 30.0247 17.4524 30.0971C17.4778 30.1901 20.0655 33.1281 20.3126 33.3446C20.6409 33.6323 21.1474 33.8694 21.626 33.9596C21.9607 34.0227 22.1855 34.0137 22.637 33.9194C23.2885 33.7833 23.6614 33.573 24.4053 32.9224C25.3261 32.1171 25.619 30.8937 25.1254 29.9144C24.9296 29.5261 22.791 27.0528 22.6852 27.0923C22.6449 27.1074 22.5531 27.1488 22.4812 27.1843Z" fill="url(#paint0_linear_599_33483)"/>
<defs>
<linearGradient id="paint0_linear_599_33483" x1="34" y1="10.6667" x2="8.21404" y2="18.2225" gradientUnits="userSpaceOnUse">
<stop stop-color="#1095ED"/>
<stop offset="1" stop-color="#E2435F"/>
</linearGradient>
</defs>
</svg>
