<svg width="34" height="50" viewBox="0 0 34 50" fill="none" xmlns="http://www.w3.org/2000/svg">
<g clip-path="url(#clip0_6849_12675)">
<path d="M0.976562 8.69531H8.67188C8.90625 8.95573 9.76562 10.3945 11.25 13.0117C11.3672 13.1549 13.1641 16.1888 16.6406 22.1133H16.6797C21.875 13.2852 24.5182 8.8125 24.6094 8.69531H32.3438C32.3438 8.82552 30.3711 12.1849 26.4258 18.7734C23.3529 24.0339 21.2109 27.6602 20 29.6523H13.3008C12.9753 29.1836 8.93229 22.3216 1.17188 9.06641C1.11979 9.06641 1.05469 8.94271 0.976562 8.69531ZM34.3945 8.69531H56.4258C58.9258 8.69531 60.9245 9.77604 62.4219 11.9375C62.8646 12.8099 63.0859 13.6237 63.0859 14.3789V14.6914C63.0859 16.3581 62.2721 17.8294 60.6445 19.1055C62.2721 20.4727 63.0859 21.8333 63.0859 23.1875V24.125C63.0859 25.8047 62.1289 27.3021 60.2148 28.6172C58.9258 29.2422 57.9883 29.5547 57.4023 29.5547C57.4023 29.6198 57.3242 29.6523 57.168 29.6523H34.3945C34.3294 29.6523 34.2969 29.6198 34.2969 29.5547V8.79297C34.3099 8.72786 34.3424 8.69531 34.3945 8.69531ZM40.9961 13.6758V16.8984H54.5898C55.4102 16.8984 55.9766 16.5404 56.2891 15.8242C56.3411 15.5117 56.3672 15.3229 56.3672 15.2578C56.3672 14.4896 55.8984 13.9622 54.9609 13.6758H40.9961ZM40.9961 21.4492V24.6914H54.5898C55.4102 24.6914 55.9766 24.3268 56.2891 23.5977C56.3411 23.2852 56.3672 23.1029 56.3672 23.0508C56.3672 22.3997 56.0286 21.9115 55.3516 21.5859C55.1432 21.4948 54.8893 21.4492 54.5898 21.4492H40.9961ZM65.1367 8.69531H87.207C89.2122 8.69531 90.9635 9.46354 92.4609 11C93.3724 12.0547 93.8281 13.194 93.8281 14.418V18.207C93.8281 20.1732 92.7474 21.8008 90.5859 23.0898L89.7461 23.4609L93.8281 29.6133L93.7305 29.6523H85.8008C85.6055 29.431 84.3099 27.5104 81.9141 23.8906H71.7383V29.5547C71.7383 29.6198 71.7057 29.6523 71.6406 29.6523H65.1367C65.0716 29.6523 65.0391 29.6198 65.0391 29.5547V8.79297C65.0521 8.72786 65.0846 8.69531 65.1367 8.69531ZM71.7383 13.6758V18.9102H84.4531C85.8073 18.9102 86.6667 18.3177 87.0312 17.1328C87.0833 16.8594 87.1094 16.5924 87.1094 16.332C87.1094 15.069 86.582 14.2292 85.5273 13.8125C85.2018 13.7214 84.8698 13.6758 84.5312 13.6758H71.7383ZM108.105 8.69531H114.766C114.896 8.8125 116.27 11.0977 118.887 15.5508C124.173 24.5221 126.927 29.2096 127.148 29.6133V29.6523H119.453C119.271 29.4701 116.895 25.4727 112.324 17.6602C111.764 16.7227 111.471 16.2539 111.445 16.2539C106.302 24.9909 103.659 29.457 103.516 29.6523H95.7812V29.5547C103.698 16.1042 107.806 9.15104 108.105 8.69531ZM129.199 8.69531H157.793C157.858 8.70833 157.891 8.74089 157.891 8.79297V13.5781C157.891 13.6432 157.858 13.6758 157.793 13.6758H129.199C129.134 13.6758 129.102 13.6432 129.102 13.5781V8.79297C129.115 8.72786 129.147 8.69531 129.199 8.69531ZM129.199 16.8984H157.793C157.858 16.9115 157.891 16.944 157.891 16.9961V21.3516C157.891 21.4167 157.858 21.4492 157.793 21.4492H129.199C129.134 21.4492 129.102 21.4167 129.102 21.3516V16.9961C129.115 16.931 129.147 16.8984 129.199 16.8984ZM129.199 24.6914H157.793C157.858 24.6914 157.891 24.7174 157.891 24.7695V29.5547C157.891 29.6198 157.858 29.6523 157.793 29.6523H129.199C129.134 29.6523 129.102 29.6198 129.102 29.5547V24.7695C129.115 24.7174 129.147 24.6914 129.199 24.6914Z" fill="url(#paint0_linear_6849_12675)"/>
</g>
<defs>
<linearGradient id="paint0_linear_6849_12675" x1="159" y1="8.33333" x2="73.8947" y2="87.6355" gradientUnits="userSpaceOnUse">
<stop stop-color="#1095ED"/>
<stop offset="1" stop-color="#E2435F"/>
</linearGradient>
<clipPath id="clip0_6849_12675">
<rect width="34" height="50" fill="white"/>
</clipPath>
</defs>
</svg>
