<svg width="50" height="30" viewBox="0 0 50 30" fill="none" xmlns="http://www.w3.org/2000/svg">
<path d="M3.23349 4.81088e-05C2.00037 4.81088e-05 1 0.995111 1 2.22286V27.7772C1 29.0047 2.00051 30 3.23349 30H46.7665C47.9996 30 49 29.0049 49 27.7772V2.22282C49 0.995253 47.9995 0 46.7665 0L3.23349 4.81088e-05ZM16.7395 3.61122C19.4794 3.61122 21.9957 4.5599 23.971 6.14454C22.3091 7.62443 21.0695 9.56874 20.458 11.7725H21.4165C21.981 9.95449 23.0064 8.33583 24.358 7.05219C25.7096 8.33583 26.7349 9.95449 27.2995 11.7725H28.273C27.6529 9.58035 26.4117 7.64765 24.751 6.17741C26.73 4.57265 29.2563 3.61117 32.008 3.61117C38.3579 3.61117 43.5054 8.73467 43.5054 15.0552C43.5054 21.3758 38.3579 26.4993 32.008 26.4993C29.2105 26.4993 26.6454 25.5056 24.652 23.8525C26.4352 22.3085 27.7498 20.2388 28.351 17.8842H27.4134C26.8796 19.8604 25.8052 21.6182 24.3579 22.9927C22.9107 21.6182 21.8378 19.8604 21.3039 17.8842H20.4114C21.0161 20.2047 22.3136 22.2455 24.0699 23.7749C22.0801 25.4075 19.5251 26.3888 16.7394 26.3888C10.3895 26.3888 5.242 21.29 5.242 15C5.242 8.71007 10.3895 3.61122 16.7395 3.61122ZM31.1455 11.6561C29.764 11.6561 28.42 12.8581 28.42 15.115C28.42 16.6115 29.1459 17.599 30.574 17.599C30.9777 17.5992 31.621 17.4348 31.621 17.4348L31.834 16.1271C31.834 16.1271 31.2469 16.4227 30.844 16.4227C29.9951 16.4227 29.6545 15.773 29.6545 15.0747C29.6545 13.6581 30.3848 12.8787 31.198 12.8787C31.8077 12.8787 32.2975 13.222 32.2975 13.222L32.4925 11.9502C32.4925 11.9502 31.7675 11.6561 31.1455 11.6561ZM42.76 11.7666L41.5585 11.7695L41.3005 13.343C41.3005 13.343 40.8488 12.7324 40.1425 12.7324C39.0442 12.7324 38.1295 14.0308 38.1295 15.524C38.1295 16.4879 38.6163 17.4333 39.6145 17.4333C40.3325 17.4333 40.7305 16.9422 40.7305 16.9422L40.678 17.3617H41.845L42.76 11.7666ZM8.34697 11.783L7.38999 17.3915H8.54348L9.2725 13.1624L9.3805 17.3915H10.2055L11.7445 13.1624L11.062 17.3915H12.2875L13.2325 11.783H11.3365L10.156 15.2239L10.0945 11.783L8.34697 11.783ZM20.398 12.1472C20.3719 12.1732 19.7005 16.0265 19.7005 16.4958C19.7005 17.1907 20.0918 17.5011 20.6425 17.496C21.0371 17.4927 21.3426 17.3941 21.484 17.3527C21.4988 17.3488 21.5275 17.3408 21.5275 17.3408L21.676 16.3376C21.5952 16.3376 21.4763 16.3719 21.3715 16.3719C20.9603 16.3719 20.9148 16.1543 20.941 15.9927L21.2725 13.9461H21.898L22.0495 12.8369H21.46L21.58 12.1472H20.398ZM34.3405 12.7115C33.5354 12.7115 32.9185 12.9757 32.9185 12.9757L32.7475 14.0058C32.7475 14.0058 33.257 13.7953 34.027 13.7953C34.4642 13.7953 34.7844 13.8451 34.7844 14.2073C34.7844 14.4274 34.7455 14.5089 34.7455 14.5089C34.7455 14.5089 34.3998 14.479 34.24 14.479C33.2247 14.479 32.158 14.9219 32.158 16.254C32.158 17.3036 32.8582 17.5438 33.292 17.5438C34.1203 17.5438 34.4776 16.9961 34.4965 16.9944L34.4575 17.4513H35.491L35.953 14.1551C35.9531 12.7565 34.7562 12.7115 34.3405 12.7115ZM14.953 12.7175C14.1449 12.7175 13.525 12.9817 13.525 12.9817L13.354 14.0118C13.354 14.0118 13.8652 13.8013 14.638 13.8013C15.0768 13.8013 15.3985 13.8512 15.3985 14.2133C15.3985 14.4332 15.3595 14.5149 15.3595 14.5149C15.3595 14.5149 15.0128 14.485 14.8525 14.485C13.8333 14.485 12.763 14.9271 12.763 16.2585C12.763 17.3075 13.4647 17.5483 13.9 17.5483C14.7314 17.5483 15.0899 17.0006 15.109 16.9989L15.07 17.4557H16.108L16.5715 14.1611C16.5715 12.7633 15.3702 12.7175 14.953 12.7175ZM18.619 12.7175C17.7513 12.7175 16.87 13.0661 16.87 14.2566C16.87 15.6056 18.3385 15.4693 18.3385 16.0375C18.3385 16.4168 17.9287 16.4481 17.6125 16.4481C17.0653 16.4481 16.5732 16.2599 16.5715 16.269L16.414 17.299C16.4423 17.3077 16.747 17.4438 17.731 17.4438C17.9952 17.4438 19.5055 17.5106 19.5055 15.945C19.5055 14.4813 18.1075 14.7714 18.1075 14.1834C18.1075 13.8907 18.3345 13.7983 18.751 13.7983C18.9164 13.7983 19.5535 13.8506 19.5535 13.8506L19.7005 12.81C19.7005 12.8102 19.2893 12.7175 18.619 12.7175ZM24.043 12.7175C22.8372 12.7177 21.9445 14.0081 21.9445 15.4658C21.9445 17.1482 23.063 17.5483 24.016 17.5483C24.8956 17.5483 25.2835 17.3527 25.2835 17.3527L25.4935 16.2048C25.4935 16.2048 24.8243 16.4973 24.22 16.4973C22.9323 16.4973 23.158 15.5434 23.158 15.5434H25.5955C25.5955 15.5434 25.753 14.7725 25.753 14.4581C25.753 13.6737 25.3596 12.7175 24.043 12.7175ZM28.4095 12.7667C27.8663 12.7667 27.4629 13.4938 27.4629 13.4938L27.5709 12.8265H26.4429L25.6855 17.4334H26.932C27.285 15.4661 27.3495 13.8687 28.192 14.1611C28.3394 13.3996 28.4825 13.1054 28.6435 12.7832C28.6435 12.7832 28.5679 12.7667 28.4095 12.7667ZM38.5089 12.7667C37.9658 12.7667 37.5625 13.4938 37.5625 13.4938L37.6705 12.8265H36.5425L35.7849 17.4334H37.03C37.3831 15.4661 37.4492 13.8687 38.2914 14.1611C38.4392 13.3996 38.5821 13.1054 38.743 12.7832C38.743 12.7832 38.6673 12.7667 38.5089 12.7667ZM24.037 13.7565C24.7218 13.7565 24.5965 14.5258 24.5965 14.588H23.248C23.248 14.5086 23.3755 13.7565 24.037 13.7565ZM40.3315 13.8461C40.7673 13.8459 40.9915 14.139 40.9915 14.8283C40.9915 15.4538 40.6745 16.2898 40.018 16.2898C39.5822 16.2898 39.3774 15.9317 39.3774 15.3702C39.3774 14.4522 39.7995 13.8461 40.3315 13.8461ZM34.342 15.4135C34.5198 15.4138 34.5565 15.431 34.5865 15.4389C34.5822 15.4382 34.5813 15.439 34.5985 15.4419C34.621 15.6471 34.4739 16.6093 33.7629 16.6093C33.3964 16.6093 33.3025 16.3192 33.3025 16.148C33.3025 15.8142 33.4771 15.4135 34.342 15.4135ZM14.9545 15.418C15.1564 15.4183 15.1785 15.4407 15.2125 15.4464C15.2351 15.6515 15.0874 16.6123 14.374 16.6123C14.006 16.6123 13.9105 16.3236 13.9105 16.1525C13.9105 15.8189 14.0862 15.418 14.9545 15.418Z" fill="#A5AECC"/>
</svg>
