<svg width="88" height="24" viewBox="0 0 88 24" fill="none" xmlns="http://www.w3.org/2000/svg">
<path d="M28.1394 4.79936C27.9583 4.79936 27.8045 4.93461 27.7761 5.11878L25.6797 18.7951C25.6721 18.8451 25.6751 18.8962 25.6885 18.9448C25.7019 18.9935 25.7254 19.0386 25.7573 19.077C25.7893 19.1154 25.8289 19.1463 25.8736 19.1674C25.9182 19.1886 25.9668 19.1996 26.016 19.1996H28.5021C28.683 19.1996 28.8371 19.0641 28.8654 18.8801L29.4812 14.864C29.5093 14.6801 29.6634 14.5446 29.8445 14.5446H32.1048C34.7459 14.5446 36.9878 12.5623 37.3973 9.87617C37.8102 7.16736 35.753 4.80524 32.8374 4.79936H28.1394ZM30.5562 7.85245H32.3647C33.8536 7.85245 34.3385 8.75619 34.1852 9.75562C34.0318 10.7572 33.2788 11.4949 31.8385 11.4949H29.9978L30.5562 7.85245ZM42.4538 8.78212C41.8261 8.78452 41.1037 8.91683 40.2928 9.26432C38.4325 10.0619 37.5392 11.7104 37.1598 12.9122C37.1598 12.9122 35.9523 16.5787 38.6804 18.5931C38.6804 18.5931 41.2105 20.5323 44.0586 18.4736L44.0095 18.7951C44.0019 18.8451 44.0049 18.8961 44.0183 18.9447C44.0316 18.9933 44.0551 19.0384 44.087 19.0768C44.1188 19.1152 44.1584 19.1461 44.203 19.1673C44.2476 19.1885 44.2961 19.1995 44.3452 19.1996H46.7054C46.8865 19.1996 47.0403 19.0641 47.0687 18.8801L48.5043 9.51452C48.512 9.46456 48.5091 9.41349 48.4957 9.36481C48.4824 9.31612 48.459 9.27099 48.4271 9.2325C48.3952 9.19402 48.3556 9.16311 48.3109 9.14188C48.2663 9.12066 48.2177 9.10963 48.1686 9.10956H45.8084C45.6273 9.10956 45.4732 9.24508 45.4452 9.42898L45.368 9.93311C45.368 9.93311 44.3374 8.7749 42.4538 8.78212ZM42.531 11.7403C42.802 11.7403 43.0499 11.7788 43.2724 11.8523C44.2907 12.1886 44.868 13.195 44.701 14.2858C44.4949 15.629 43.4241 16.618 42.0508 16.618C41.7801 16.618 41.5322 16.5798 41.3095 16.5063C40.2914 16.17 39.7104 15.1636 39.8775 14.0728C40.0836 12.7296 41.1578 11.7403 42.531 11.7403Z" fill="#003087"/>
<path d="M62.1268 4.79936C61.9457 4.79936 61.7918 4.93461 61.7635 5.11878L59.6671 18.7951C59.6595 18.8451 59.6625 18.8962 59.6759 18.9448C59.6893 18.9935 59.7127 19.0386 59.7447 19.077C59.7766 19.1154 59.8163 19.1463 59.861 19.1674C59.9056 19.1886 59.9542 19.1996 60.0033 19.1996H62.4895C62.6704 19.1996 62.8244 19.0641 62.8528 18.8801L63.4686 14.864C63.4967 14.6801 63.6507 14.5446 63.8319 14.5446H66.0922C68.7333 14.5446 70.9749 12.5623 71.3842 9.87617C71.7973 7.16736 69.7404 4.80524 66.8247 4.79936H62.1268ZM64.5436 7.85245H66.3521C67.841 7.85245 68.3258 8.75619 68.1725 9.75562C68.0192 10.7572 67.2664 11.4949 65.8259 11.4949H63.9852L64.5436 7.85245ZM76.441 8.78212C75.8132 8.78452 75.0908 8.91683 74.2799 9.26432C72.4196 10.0619 71.5263 11.7104 71.1469 12.9122C71.1469 12.9122 69.94 16.5787 72.668 18.5931C72.668 18.5931 75.1976 20.5323 78.046 18.4736L77.9969 18.7951C77.9893 18.8451 77.9923 18.8962 78.0057 18.9448C78.0191 18.9935 78.0425 19.0386 78.0745 19.077C78.1064 19.1154 78.1461 19.1463 78.1908 19.1674C78.2354 19.1886 78.284 19.1996 78.3331 19.1996H80.693C80.8741 19.1996 81.028 19.0641 81.0563 18.8801L82.4924 9.51452C82.5001 9.46452 82.4972 9.4134 82.4839 9.36468C82.4705 9.31596 82.447 9.27079 82.4151 9.2323C82.3831 9.19381 82.3434 9.1629 82.2987 9.14171C82.254 9.12052 82.2054 9.10955 82.1562 9.10956H79.796C79.6149 9.10956 79.4608 9.24508 79.4328 9.42898L79.3556 9.93311C79.3556 9.93311 78.3246 8.7749 76.441 8.78212ZM76.5181 11.7403C76.7892 11.7403 77.037 11.7788 77.2595 11.8523C78.2778 12.1886 78.8552 13.195 78.6881 14.2858C78.482 15.629 77.4112 16.618 76.0379 16.618C75.7672 16.618 75.5193 16.5798 75.2966 16.5063C74.2786 16.17 73.6976 15.1636 73.8646 14.0728C74.0707 12.7296 75.1449 11.7403 76.5181 11.7403Z" fill="#0070E0"/>
<path d="M49.6242 9.10956C49.4371 9.10956 49.3041 9.29747 49.3612 9.48057L51.9487 17.7404L49.6091 21.6328C49.4956 21.8218 49.6276 22.0658 49.8435 22.0658H52.6087C52.6878 22.0658 52.7656 22.0447 52.8344 22.0047C52.9033 21.9647 52.961 21.9072 53.0019 21.8375L60.2284 9.53991C60.3393 9.35093 60.2068 9.10929 59.9922 9.10929H57.2272C57.1473 9.10936 57.0689 9.13082 56.9995 9.17154C56.9302 9.21227 56.8724 9.27087 56.8317 9.34157L53.9872 14.2818L52.5433 9.37819C52.4962 9.21862 52.3531 9.10929 52.1912 9.10929L49.6242 9.10956Z" fill="#003087"/>
<path d="M85.174 4.79936C84.9932 4.79936 84.8391 4.93488 84.8107 5.11878L82.7138 18.7946C82.7061 18.8446 82.7091 18.8957 82.7224 18.9445C82.7358 18.9932 82.7592 19.0383 82.7912 19.0768C82.8231 19.1153 82.8628 19.1462 82.9075 19.1674C82.9522 19.1886 83.0008 19.1996 83.05 19.1996H85.5362C85.7171 19.1996 85.8712 19.0641 85.8995 18.8801L87.9959 5.20378C88.0035 5.15387 88.0005 5.10285 87.9872 5.05423C87.9738 5.00562 87.9503 4.96055 87.9185 4.92213C87.8866 4.88371 87.847 4.85284 87.8024 4.83165C87.7578 4.81046 87.7093 4.79944 87.6602 4.79936H85.174Z" fill="#0070E0"/>
<path d="M7.41281 4.79936C7.25265 4.79949 7.0978 4.85838 6.97607 4.96543C6.85433 5.07248 6.77369 5.22068 6.74864 5.38341L5.64511 12.5834C5.69655 12.2471 5.97822 11.9993 6.30925 11.9993H9.54299C12.7975 11.9993 15.5591 9.55702 16.0637 6.24732C16.1013 6.00022 16.1226 5.7508 16.1274 5.50075C15.3003 5.05463 14.3288 4.79936 13.2642 4.79936H7.41281Z" fill="#001C64"/>
<path d="M16.1274 5.50102C16.1226 5.75107 16.1013 6.00049 16.0637 6.24759C15.5591 9.55729 12.7973 11.9996 9.54299 11.9996H6.30925C5.97847 11.9996 5.69655 12.2471 5.6451 12.5836L3.99484 23.3505C3.98243 23.4307 3.98708 23.5127 4.00848 23.5908C4.02987 23.669 4.06751 23.7414 4.11876 23.8032C4.17002 23.8649 4.23369 23.9145 4.30538 23.9485C4.37707 23.9825 4.45508 24 4.53401 24H8.04396C8.20412 23.9999 8.35897 23.941 8.4807 23.8339C8.60244 23.7269 8.68307 23.5787 8.70811 23.4159L9.63263 17.3838C9.65768 17.221 9.7384 17.0727 9.86024 16.9657C9.98209 16.8586 10.1371 16.7998 10.2973 16.7998H12.3638C15.6184 16.7998 18.38 14.3574 18.8846 11.0477C19.2429 8.69872 18.0928 6.56113 16.1274 5.50102Z" fill="#0070E0"/>
<path d="M3.42527 0C3.09449 0 2.81257 0.247519 2.76112 0.583514L0.00677883 18.5503C-0.0454495 18.8914 0.210762 19.1998 0.546478 19.1998H4.63094L5.6451 12.5836L6.74864 5.38367C6.77369 5.22095 6.85433 5.07275 6.97607 4.9657C7.09781 4.85865 7.25266 4.79976 7.41281 4.79963H13.2642C14.329 4.79963 15.3003 5.05516 16.1274 5.50102C16.184 2.48775 13.767 0 10.4439 0H3.42527Z" fill="#003087"/>
</svg>
