<svg width="20" height="16" viewBox="0 0 20 16" fill="none" xmlns="http://www.w3.org/2000/svg">
<path fill-rule="evenodd" clip-rule="evenodd" d="M2.93507 9.46954C0.946484 7.48561 0.946484 4.26906 2.93507 2.28515L4.40808 0.815619C4.8299 0.394794 5.51381 0.394794 5.93564 0.815619C6.35749 1.23645 6.35749 1.91875 5.93564 2.33958L4.46264 3.80911C3.31768 4.95138 3.31768 6.80328 4.46264 7.94555C5.60758 9.08781 7.46391 9.08781 8.60889 7.94555L10.0546 6.50327C12.0432 4.51934 15.2673 4.51934 17.2559 6.50327C19.2445 8.48716 19.2445 11.7037 17.2559 13.6876L15.7557 15.1843C15.3338 15.6052 14.6499 15.6052 14.2281 15.1843C13.8063 14.7636 13.8063 14.0813 14.2281 13.6604L15.7283 12.1637C16.8733 11.0214 16.8733 9.16949 15.7283 8.02723C14.5834 6.88496 12.7271 6.88496 11.5821 8.02723L10.1364 9.46954C8.14776 11.4535 4.92367 11.4535 2.93507 9.46954ZM19.7386 4.34867C19.3495 4.7998 18.6675 4.85083 18.2154 4.46265C16.2726 2.79488 11.0277 1.62183 7.14734 6.66919C6.78426 7.14144 6.1062 7.23061 5.63285 6.8685C5.1595 6.50626 5.07009 5.82983 5.43315 5.35753C10.1725 -0.807023 16.8754 0.469148 19.6243 2.82898C20.0765 3.21716 20.1277 3.89755 19.7386 4.34867ZM1.78468 11.4284C1.33249 11.0402 0.650495 11.0912 0.261403 11.5424C-0.127691 11.9935 -0.0765417 12.6739 0.375644 13.0621C3.12463 15.4219 9.82746 16.6981 14.5669 10.5335C14.9299 10.0612 14.8405 9.38483 14.3672 9.02266C13.8938 8.66042 13.2158 8.74965 12.8527 9.22184C8.97223 14.2693 3.72748 13.0962 1.78468 11.4284Z" fill="url(#paint0_linear_4446_38551)"/>
<defs>
<linearGradient id="paint0_linear_4446_38551" x1="20.3151" y1="0.161001" x2="0.752844" y2="14.9459" gradientUnits="userSpaceOnUse">
<stop stop-color="#3E82E7"/>
<stop offset="1" stop-color="#42B4EB"/>
</linearGradient>
</defs>
</svg>
