<svg width="113" height="15" viewBox="0 0 113 15" fill="none" xmlns="http://www.w3.org/2000/svg">
<path d="M0 0H5.51718C5.68521 0.186393 6.30134 1.21622 7.36557 3.08947C7.44959 3.19199 8.73786 5.36347 11.2304 9.60391H11.2584C14.9832 3.28518 16.8783 0.083877 16.9436 0H22.4888C22.4888 0.0931966 21.0745 2.49767 18.2459 7.21342C16.0428 10.9786 14.5071 13.5741 13.6389 15H8.83589C8.6025 14.6645 5.70388 9.75303 0.14003 0.26561C0.102689 0.26561 0.056012 0.177074 0 0Z" fill="url(#paint0_linear_6077_34043)"/>
<path d="M23.9591 0H39.7545C41.5469 0 42.9798 0.773532 44.0534 2.3206C44.3708 2.94501 44.5295 3.52749 44.5295 4.06803V4.29171C44.5295 5.48462 43.946 6.53774 42.7791 7.45107C43.946 8.42964 44.5295 9.40354 44.5295 10.3728V11.0438C44.5295 12.246 43.8434 13.3178 42.4711 14.2591C41.5469 14.7064 40.8747 14.9301 40.4546 14.9301C40.4546 14.9767 40.3986 15 40.2866 15H23.9591C23.9124 15 23.8891 14.9767 23.8891 14.9301V0.0698975C23.8984 0.0232992 23.9218 0 23.9591 0ZM28.6921 3.56477V5.87139H38.4382C39.0263 5.87139 39.4324 5.6151 39.6565 5.10252C39.6938 4.87884 39.7125 4.74371 39.7125 4.69711C39.7125 4.14725 39.3764 3.7698 38.7043 3.56477H28.6921ZM28.6921 9.12861V11.4492H38.4382C39.0263 11.4492 39.4324 11.1883 39.6565 10.6664C39.6938 10.4427 39.7125 10.3122 39.7125 10.2749C39.7125 9.80895 39.4698 9.45946 38.9843 9.22647C38.835 9.16123 38.6529 9.12861 38.4382 9.12861H28.6921Z" fill="url(#paint1_linear_6077_34043)"/>
<path d="M45.9998 0H61.8232C63.2608 0 64.5164 0.54986 65.59 1.64958C66.2435 2.40447 66.5702 3.21994 66.5702 4.09599V6.80801C66.5702 8.21528 65.7954 9.38024 64.2457 10.3029L63.6436 10.5685L66.5702 14.972L66.5002 15H60.815C60.6749 14.8416 59.7461 13.4669 58.0284 10.876H50.7328V14.9301C50.7328 14.9767 50.7095 15 50.6628 15H45.9998C45.9531 15 45.9298 14.9767 45.9298 14.9301V0.0698975C45.9391 0.0232992 45.9625 0 45.9998 0ZM50.7328 3.56477V7.31128H59.8488C60.8196 7.31128 61.4358 6.88723 61.6972 6.03914C61.7345 5.84343 61.7532 5.65238 61.7532 5.46598C61.7532 4.56198 61.3751 3.96086 60.6189 3.66263C60.3856 3.59739 60.1475 3.56477 59.9048 3.56477H50.7328Z" fill="url(#paint2_linear_6077_34043)"/>
<path d="M76.8064 0H81.5814C81.6748 0.083877 82.6596 1.71948 84.536 4.9068C88.3262 11.3281 90.3006 14.6831 90.4593 14.972V15H84.9421C84.8114 14.8695 83.1077 12.0084 79.831 6.41659C79.4296 5.74557 79.2196 5.41007 79.2009 5.41007C75.5134 11.6636 73.6184 14.8602 73.5157 15H67.9705V14.9301C73.6464 5.30289 76.5917 0.326188 76.8064 0Z" fill="url(#paint3_linear_6077_34043)"/>
<path d="M91.9296 0H112.43C112.477 0.00931966 112.5 0.0326188 112.5 0.0698975V3.49487C112.5 3.54147 112.477 3.56477 112.43 3.56477H91.9296C91.8829 3.56477 91.8596 3.54147 91.8596 3.49487V0.0698975C91.8689 0.0232992 91.8923 0 91.9296 0ZM91.9296 5.87139H112.43C112.477 5.88071 112.5 5.90401 112.5 5.94129V9.05871C112.5 9.10531 112.477 9.12861 112.43 9.12861H91.9296C91.8829 9.12861 91.8596 9.10531 91.8596 9.05871V5.94129C91.8689 5.89469 91.8923 5.87139 91.9296 5.87139ZM91.9296 11.4492H112.43C112.477 11.4492 112.5 11.4678 112.5 11.5051V14.9301C112.5 14.9767 112.477 15 112.43 15H91.9296C91.8829 15 91.8596 14.9767 91.8596 14.9301V11.5051C91.8689 11.4678 91.8923 11.4492 91.9296 11.4492Z" fill="url(#paint4_linear_6077_34043)"/>
<defs>
<linearGradient id="paint0_linear_6077_34043" x1="113.295" y1="-0.259086" x2="52.3741" y2="56.6035" gradientUnits="userSpaceOnUse">
<stop stop-color="#1095ED"/>
<stop offset="1" stop-color="#E2435F"/>
</linearGradient>
<linearGradient id="paint1_linear_6077_34043" x1="113.295" y1="-0.259086" x2="52.3741" y2="56.6035" gradientUnits="userSpaceOnUse">
<stop stop-color="#1095ED"/>
<stop offset="1" stop-color="#E2435F"/>
</linearGradient>
<linearGradient id="paint2_linear_6077_34043" x1="113.295" y1="-0.259086" x2="52.3741" y2="56.6035" gradientUnits="userSpaceOnUse">
<stop stop-color="#1095ED"/>
<stop offset="1" stop-color="#E2435F"/>
</linearGradient>
<linearGradient id="paint3_linear_6077_34043" x1="113.295" y1="-0.259086" x2="52.3741" y2="56.6035" gradientUnits="userSpaceOnUse">
<stop stop-color="#1095ED"/>
<stop offset="1" stop-color="#E2435F"/>
</linearGradient>
<linearGradient id="paint4_linear_6077_34043" x1="113.295" y1="-0.259086" x2="52.3741" y2="56.6035" gradientUnits="userSpaceOnUse">
<stop stop-color="#1095ED"/>
<stop offset="1" stop-color="#E2435F"/>
</linearGradient>
</defs>
</svg>
