<svg width="50" height="55" viewBox="0 0 50 55" fill="none" xmlns="http://www.w3.org/2000/svg">
<path d="M22.7408 36.6812C21.2603 34.9364 21.7469 31.459 22.7262 29.2886C23.8693 26.7545 25.225 27.0193 25.9646 24.9775C27.3419 21.1759 23.2074 18.6993 24.3004 14.7525C25.1938 11.5259 28.2959 11.9567 29.127 8.33732C29.7267 5.72572 28.3997 4.24607 29.6512 2.14954C29.7582 1.97039 30.9389 0.0543553 32.7907 0.00113204C34.6597 -0.0526697 36.1191 1.82268 36.7357 3.19318C37.8753 5.72649 36.3048 6.91321 36.5827 10.4256C36.961 15.2074 40.096 15.8381 39.666 19.4184C39.3109 22.3748 37.0913 22.6266 36.7609 25.9126C36.454 28.9638 38.2566 29.8555 37.8587 31.8882C36.9434 36.564 25.7607 40.24 22.7408 36.6814V36.6812Z" fill="url(#paint0_linear_4446_38492)"/>
<mask id="mask0_4446_38492" style="mask-type:luminance" maskUnits="userSpaceOnUse" x="21" y="0" width="19" height="39">
<path d="M22.7408 36.6812C21.2603 34.9364 21.7469 31.459 22.7262 29.2886C23.8693 26.7545 25.225 27.0193 25.9646 24.9775C27.3419 21.1759 23.2074 18.6993 24.3004 14.7525C25.1938 11.5259 28.2959 11.9567 29.127 8.33732C29.7267 5.72572 28.3997 4.24607 29.6512 2.14954C29.7582 1.97039 30.9389 0.0543553 32.7907 0.00113204C34.6597 -0.0526697 36.1191 1.82268 36.7357 3.19318C37.8753 5.72649 36.3048 6.91321 36.5827 10.4256C36.961 15.2074 40.096 15.8381 39.666 19.4184C39.3109 22.3748 37.0913 22.6266 36.7609 25.9126C36.454 28.9638 38.2566 29.8555 37.8587 31.8882C36.9434 36.564 25.7607 40.24 22.7408 36.6814V36.6812Z" fill="white"/>
</mask>
<g mask="url(#mask0_4446_38492)">
<g style="mix-blend-mode:soft-light" opacity="0.7">
<path d="M24.8187 39.477C24.8026 39.477 24.7877 39.4662 24.7829 39.4496C24.7769 39.4293 24.7881 39.4077 24.808 39.4016C26.7129 38.8136 28.4143 37.8423 29.8652 36.5144C31.2393 35.2567 32.6601 33.9564 33.0364 31.9962C33.3209 30.5144 32.8383 29.5564 32.2275 28.3437C31.6323 27.1619 30.8913 25.6914 30.7047 23.2605C30.598 21.8724 30.4655 20.145 31.3189 18.3207C31.8163 17.2576 32.3918 16.7323 32.8995 16.2685C33.4305 15.7837 33.85 15.4008 33.9827 14.5679C34.1994 13.2084 33.7026 12.1713 33.1273 10.9707C32.7716 10.2287 32.404 9.46136 32.1445 8.51588C31.4135 5.85472 32.1231 2.70355 34.2531 -0.849869C34.2638 -0.867996 34.2871 -0.873588 34.3046 -0.862404C34.3222 -0.851219 34.3277 -0.8275 34.3168 -0.809566C32.1982 2.72477 31.4916 5.8553 32.2164 8.49505C32.4742 9.43379 32.8404 10.1978 33.1945 10.9368C33.7754 12.1493 34.2773 13.1964 34.0567 14.5804C33.9196 15.4401 33.4699 15.8507 32.9493 16.326C32.4468 16.7848 31.8771 17.3048 31.3863 18.3539C30.5413 20.1596 30.6731 21.8755 30.779 23.2543C30.9646 25.6696 31.7015 27.1326 32.2938 28.3082C32.9113 29.5342 33.3993 30.5029 33.1096 32.011C32.7284 33.9963 31.298 35.3055 29.9149 36.5717C28.4558 37.9073 26.7449 38.884 24.8294 39.475C24.8259 39.4762 24.8223 39.4768 24.8187 39.4768V39.477Z" fill="white"/>
</g>
<g style="mix-blend-mode:soft-light" opacity="0.7">
<path d="M31.0104 19.2599C30.9985 19.2599 30.9867 19.2541 30.9794 19.2434C28.7406 15.9001 27.9755 13.1244 27.7276 11.3844C27.4587 9.49617 27.7246 8.38292 27.7272 8.37173C27.7323 8.3511 27.7524 8.33876 27.7727 8.34396C27.7928 8.34917 27.8048 8.37 27.7997 8.39063C27.7971 8.40162 27.5346 9.50369 27.8023 11.3785C28.0494 13.1092 28.812 15.8712 31.041 19.1996C31.0526 19.2171 31.0483 19.241 31.0314 19.253C31.025 19.2576 31.0175 19.2597 31.0102 19.2597L31.0104 19.2599Z" fill="white"/>
</g>
<g style="mix-blend-mode:soft-light" opacity="0.7">
<path d="M31.0375 25.2465C31.0234 25.2465 31.0101 25.2384 31.0037 25.2248C30.9947 25.2057 31.0026 25.1827 31.0214 25.1735C32.9116 24.2455 34.4658 23.0463 35.6408 21.6088C36.5806 20.4591 37.2814 19.1554 37.7238 17.7336C38.4774 15.3115 38.2151 13.3606 38.2125 13.3413C38.2095 13.3203 38.2238 13.3008 38.2442 13.2977C38.2653 13.2948 38.2837 13.3093 38.2867 13.3303C38.2895 13.3498 38.5541 15.3152 37.7962 17.7536C37.3512 19.1856 36.6458 20.4987 35.6996 21.6567C34.5174 23.1033 32.9544 24.3099 31.0535 25.2433C31.0482 25.2458 31.0428 25.2469 31.0373 25.2469L31.0375 25.2465Z" fill="white"/>
</g>
<g style="mix-blend-mode:soft-light" opacity="0.7">
<path d="M31.4233 35.2222C31.4169 35.2222 31.4106 35.2205 31.4046 35.217C27.4838 32.8873 25.8294 30.0208 25.1318 28.0262C24.3755 25.8634 24.5501 24.2285 24.5518 24.2121C24.5542 24.1911 24.5724 24.1766 24.5933 24.1784C24.6137 24.1809 24.6286 24.2 24.6261 24.221C24.6243 24.2372 24.4519 25.8574 25.2035 28.0043C25.8971 29.9855 27.5427 32.8335 31.4419 35.1504C31.4598 35.1611 31.466 35.1846 31.4556 35.2031C31.4487 35.2154 31.4361 35.2224 31.4231 35.2224L31.4233 35.2222Z" fill="white"/>
</g>
<g style="mix-blend-mode:soft-light" opacity="0.7">
<path d="M32.1429 8.0703C32.1307 8.0703 32.1189 8.06433 32.1117 8.05314C32.1003 8.0354 32.105 8.01168 32.1222 7.99992C35.1232 5.95102 36.0674 3.26729 36.3311 1.37652C36.617 -0.673926 36.1869 -2.2604 36.1825 -2.27622C36.1769 -2.29666 36.1884 -2.31787 36.2083 -2.32365C36.228 -2.32963 36.2488 -2.31768 36.2545 -2.29724C36.259 -2.28123 36.6929 -0.68164 36.4054 1.38423C36.1401 3.2914 35.1887 5.99826 32.1636 8.06394C32.1572 8.06838 32.15 8.0703 32.1429 8.0703Z" fill="white"/>
</g>
</g>
<path d="M31.9064 51.2077C31.4592 51.2355 30.4625 50.8913 30.2387 50.6915C28.7493 49.3621 25.8032 47.059 25.5323 44.9349C25.4861 44.5722 26.9851 43.9322 27.1424 43.56C28.0016 42.9138 28.3389 42.7443 28.862 41.7178C30.4062 38.6872 24.8456 34.6599 29.9206 31.8624C33.6379 29.8133 37.2387 30.5558 35.6381 24.3348C34.0378 18.1139 36.7644 5.6685 44.0663 8.79208C48.2569 10.5847 45.4796 16.6884 48.1307 20.2665C50.65 23.6668 49.6755 27.0654 46.2087 30.0847C42.742 33.1039 45.1416 34.4295 46.9369 37.7785C49.0934 41.8013 42.8097 43.8245 39.8312 44.5045C37.4326 45.052 31.6847 48.1081 31.9064 51.2079V51.2077Z" fill="#E2435F"/>
<mask id="mask1_4446_38492" style="mask-type:luminance" maskUnits="userSpaceOnUse" x="25" y="8" width="25" height="44">
<path d="M31.9064 51.2068C31.4592 51.2345 30.4625 50.8903 30.2387 50.6905C28.7493 49.3611 25.8032 47.058 25.5323 44.9339C25.4861 44.5712 26.9851 43.9312 27.1424 43.559C28.0016 42.9128 28.3389 42.7433 28.862 41.7168C30.4062 38.6862 24.8456 34.659 29.9206 31.8615C33.6379 29.8124 37.2387 30.5548 35.6381 24.3338C34.0378 18.1129 36.7644 5.66752 44.0663 8.79111C48.2569 10.5837 45.4796 16.6874 48.1307 20.2655C50.65 23.6658 49.6755 27.0644 46.2087 30.0837C42.742 33.1029 45.1416 34.4285 46.9369 37.7775C49.0934 41.8003 42.8097 43.8236 39.8312 44.5035C37.4326 45.051 31.6847 48.1071 31.9064 51.207V51.2068Z" fill="white"/>
</mask>
<g mask="url(#mask1_4446_38492)">
<path d="M27.9731 47.9829L27.916 47.9046C39.6633 38.8734 44.9203 23.6631 41.9785 7.21696L42.0722 7.19922C43.4664 14.9935 42.9923 22.8077 40.7013 29.7967C38.2926 37.1444 33.8913 43.4331 27.9731 47.9829Z" fill="#FCFDFE"/>
<path d="M48.0199 39.3439C44.039 38.8181 37.7678 40.0152 34.0402 42.0126L33.9961 41.9258C37.7383 39.9207 44.0347 38.719 48.0319 39.2469L48.0197 39.3439H48.0199Z" fill="#FCFDFE"/>
<path d="M30.2595 46.183L30.1834 46.124C31.5016 44.3337 31.8876 41.9278 31.3311 38.9732C30.9231 36.8068 30.027 34.4012 28.668 31.8233L28.7517 31.7769C30.1153 34.3636 31.0147 36.7785 31.4246 38.9547C31.9866 41.9377 31.5945 44.3697 30.2593 46.1832L30.2595 46.183Z" fill="#FCFDFE"/>
<path d="M40.989 28.7918L40.9102 28.7368C43.2257 25.231 47.2697 23.6199 50.2546 22.8857L50.2768 22.981C47.3083 23.7111 43.2873 25.3118 40.989 28.7918Z" fill="#FCFDFE"/>
<path d="M42.7537 19.2655L42.6591 19.2768C42.1177 14.5369 38.7306 10.9322 36.7598 9.20529L36.8215 9.13086C38.8029 10.8672 42.2084 14.4925 42.7535 19.2655H42.7537Z" fill="#FCFDFE"/>
</g>
<path d="M26.3266 3.1284L31.7906 49.7709C31.8725 50.4703 31.4032 51.097 30.7457 51.1641L7.98728 53.7302C6.59311 53.8193 5.82983 53.0877 5.74383 52.3441L0.00715312 2.75545C-0.078469 2.01592 0.605569 1.34619 2.00575 1.34619L24.9713 1.84294C25.6361 1.85432 26.2451 2.43283 26.3266 3.12859V3.1284Z" fill="url(#paint1_linear_4446_38492)"/>
<path d="M27.3504 3.04746L32.8445 49.9232C32.9269 50.6261 32.456 51.2563 31.796 51.3236L8.20187 53.736C7.46207 53.8116 6.78423 53.262 6.69767 52.5146L0.928878 2.66988C0.84288 1.92649 1.38609 1.32908 2.13397 1.342L25.9897 1.75545C26.657 1.76702 27.2684 2.34842 27.3504 3.04765V3.04746Z" fill="#273147"/>
<path d="M26.9028 5.63358L31.995 49.0967C32.072 49.7533 31.6309 50.3409 31.0132 50.4026L8.82373 52.6179C8.13612 52.6866 7.50597 52.1736 7.42542 51.4779L2.09432 5.43264C2.01414 4.74055 2.51848 4.18035 3.21323 4.18807L25.6304 4.43316C26.2546 4.43991 26.8263 4.98024 26.9029 5.63358H26.9028Z" fill="#1095ED"/>
<path d="M15.0043 3.01575C15.0334 3.26528 14.859 3.46506 14.6145 3.46178C14.3698 3.4587 14.1475 3.25332 14.1184 3.00321C14.0893 2.7531 14.2643 2.55351 14.509 2.55718C14.7534 2.56084 14.975 2.76602 15.0041 3.01555L15.0043 3.01575Z" fill="url(#paint2_linear_4446_38492)"/>
<g style="mix-blend-mode:soft-light">
<path d="M28.7395 35.3278H7.98155C7.44904 35.3278 7.09322 35.7771 7.19236 36.3315C7.2915 36.886 7.80655 37.3256 8.33681 37.3139L29.0127 36.8561C29.3234 36.8491 29.5125 36.5043 29.4376 36.0857C29.3627 35.667 29.0512 35.3276 28.7391 35.3276L28.7395 35.3278Z" fill="white"/>
<path d="M29.26 38.2336L8.65794 39.1041C8.12956 39.1264 7.77694 39.5941 7.87608 40.1485C7.97522 40.7029 8.48689 41.1242 9.0132 41.0903L29.5334 39.762C29.8417 39.742 30.0291 39.3866 29.9542 38.9681C29.8793 38.5495 29.5696 38.2207 29.26 38.2338V38.2336Z" fill="white"/>
</g>
<path d="M17.517 28.1706C17.1452 28.1822 16.768 28.0815 16.4265 27.8796C15.3859 27.2639 13.8343 26.2472 12.3846 24.9163C10.545 23.2274 9.39119 21.5108 8.96909 19.825L8.96251 19.7986L7.99119 12.6055C7.80699 11.1839 8.52502 10.03 10.0555 9.27173C11.3199 8.6452 13.0634 8.33492 14.9549 8.39316C16.8247 8.45082 18.601 8.86137 19.9651 9.54575C21.5867 10.3591 22.5302 11.5025 22.7058 12.8577L23.5601 19.7307L23.5605 19.7559C23.5834 21.3702 22.9428 23.0388 21.647 24.7261C20.6075 26.0795 19.3739 27.152 18.5173 27.8166C18.2339 28.0364 17.8881 28.1588 17.5172 28.1704L17.517 28.1706Z" fill="url(#paint3_linear_4446_38492)"/>
<path d="M17.8872 28.1706C17.5203 28.1822 17.1479 28.0815 16.8105 27.8796C15.7825 27.2639 14.2498 26.2472 12.8169 24.9163C10.9987 23.2274 9.8573 21.5108 9.43783 19.825L9.43125 19.7986L8.46031 12.6055C8.27611 11.1839 8.98268 10.03 10.4916 9.27173C11.7384 8.6452 13.4579 8.33492 15.3249 8.39316C17.1699 8.45082 18.9237 8.86137 20.2709 9.54575C21.8724 10.3591 22.8056 11.5025 22.9811 12.8577L23.8359 19.7307L23.8362 19.7559C23.8616 21.3702 23.2322 23.0388 21.9565 24.7261C20.9332 26.0795 19.7175 27.152 18.8733 27.8166C18.5941 28.0364 18.2531 28.1588 17.887 28.1704L17.8872 28.1706Z" fill="url(#paint4_linear_4446_38492)"/>
<path d="M17.756 26.3953C17.7241 26.3961 17.6749 26.3905 17.6218 26.3587C16.8414 25.8926 15.3192 24.9164 13.9398 23.6418C12.4499 22.2647 11.5201 20.926 11.1838 19.6687L10.2335 12.6305C10.1477 11.9552 10.5728 11.3773 11.4934 10.9149C12.5209 10.3986 14.0401 10.1277 15.654 10.1686C17.2517 10.2091 18.8051 10.5516 19.9221 11.1062C20.9103 11.5966 21.4526 12.1747 21.5386 12.8267L22.383 19.6211C22.3787 20.8379 21.8387 22.1496 20.7708 23.5284C19.7668 24.8248 18.5307 25.8527 17.8799 26.3523C17.8354 26.3864 17.7879 26.3945 17.756 26.3955V26.3953Z" fill="url(#paint5_linear_4446_38492)"/>
<path d="M17.5288 25.9146C16.7396 25.436 15.3268 24.5117 14.0451 23.325C12.6446 22.0286 11.7701 20.7844 11.4534 19.6331L10.5087 12.6358C10.4473 12.153 10.8052 11.71 11.57 11.3245C12.5432 10.8338 13.9952 10.5754 15.5465 10.6124C17.083 10.6492 18.5688 10.9724 19.629 11.4971C20.4527 11.9048 20.9003 12.3495 20.9623 12.8204L21.8035 19.5898C21.7909 20.7067 21.2764 21.9281 20.2681 23.2273C19.3321 24.4333 18.1865 25.403 17.529 25.9143L17.5288 25.9146Z" fill="url(#paint6_linear_4446_38492)"/>
<path d="M16.4377 22.4259C16.1673 22.4259 15.9078 22.3011 15.7347 22.0807L12.47 17.9268C12.1566 17.528 12.2173 16.9437 12.6056 16.6217C12.9939 16.2996 13.5628 16.3621 13.8764 16.7609L16.1153 19.6099L18.3924 12.8205C18.555 12.3357 19.0693 12.0782 19.5412 12.2452C20.013 12.412 20.2637 12.9402 20.1013 13.425L17.2924 21.8002C17.1854 22.1193 16.918 22.3536 16.5941 22.412C16.5421 22.4215 16.4897 22.4259 16.4379 22.4259H16.4377Z" fill="white"/>
<path d="M30.7403 53.4533C30.7403 53.4533 29.0553 54.3327 29.0278 54.4731C29.0002 54.6134 30.1115 54.426 30.5651 54.4462C31.0188 54.4665 31.3918 54.3126 31.3507 54.092C31.3096 53.8714 31.1509 53.3164 31.1509 53.3164L30.7403 53.4533Z" fill="#E2435F"/>
<path d="M30.6777 52.7394L30.7803 53.6104C30.7803 53.6104 31.0471 53.7194 31.2262 53.5906L31.3026 52.6353L30.6777 52.7394Z" fill="url(#paint7_linear_4446_38492)"/>
<path d="M38.6131 52.7603L38.8092 53.1216C38.864 53.2227 38.8803 53.3444 38.8541 53.4595C38.7855 53.7599 38.6486 54.3454 38.5889 54.4981C38.5076 54.706 37.4173 54.8296 37.4173 54.8296C37.4173 54.8296 37.32 54.6724 37.5464 54.4827C37.7729 54.2929 37.9184 54.263 37.9982 53.983C38.078 53.703 38.1313 52.9109 38.1313 52.9109L38.6131 52.7604V52.7603Z" fill="#E2435F"/>
<path d="M37.7988 51.8425C37.8704 51.9081 38.2206 53.1285 38.2206 53.1285C38.2206 53.1285 38.334 53.295 38.5493 53.0493C38.7647 52.8036 38.6468 52.9392 38.6468 52.9392L38.6064 51.7388L37.7988 51.8425Z" fill="url(#paint8_linear_4446_38492)"/>
<path d="M29.7514 35.2383C29.6624 37.8368 29.6588 40.6599 29.7891 43.6759C29.9358 47.0722 30.2304 50.2112 30.6016 53.0567C30.7396 53.0617 30.8847 53.0627 31.0361 53.0577C31.1384 53.0544 31.2376 53.0486 31.3333 53.0411C31.526 52.451 31.7537 51.6752 31.9576 50.7484C32.1721 49.7738 32.3014 48.8997 32.3935 48.064C32.7179 45.1209 32.3377 44.864 32.6009 42.6828C32.8341 40.751 33.1657 40.6756 33.5552 37.933C33.9777 34.9572 33.6631 34.5107 33.5103 34.3493C32.8593 33.6626 31.3301 34.1301 29.7512 35.2383H29.7514Z" fill="#0D1021"/>
<path d="M33.5114 34.3489C32.8905 33.694 31.4704 34.0905 29.9707 35.09C31.6961 37.2305 31.8842 38.6191 31.6773 39.52C31.4436 40.5384 30.7329 40.8317 30.7355 41.9451C30.7389 43.3135 31.8142 43.6759 31.7915 45.1239C31.7763 46.0813 31.3039 46.0715 31.1921 47.254C31.0601 48.6532 31.6775 49.1353 31.4775 50.1706C31.3915 50.6161 31.1459 51.1981 30.4467 51.7976C30.497 52.2228 30.5488 52.6436 30.6027 53.0565C30.7407 53.0615 30.8857 53.0622 31.0372 53.0574C31.1396 53.0541 31.2387 53.0486 31.3345 53.0408C31.5271 52.4508 31.7549 51.675 31.9588 50.7482C32.1732 49.7736 32.3026 48.8995 32.3946 48.0635C32.7191 45.1204 32.3388 44.8636 32.6021 42.6824C32.8353 40.7505 33.1669 40.6751 33.5563 37.9324C33.9788 34.9565 33.6643 34.5101 33.5114 34.3489Z" fill="#0D1021"/>
<path d="M30.8205 35.1946C32.3061 37.6907 33.9085 40.7971 35.3416 44.5156C36.4246 47.3256 37.2101 49.9638 37.7867 52.3153C37.8648 52.3568 38.0488 52.4395 38.2841 52.4038C38.605 52.355 38.7973 52.12 38.8474 52.0544C39.0821 50.3688 39.0562 48.9412 38.9766 47.9111C38.9255 47.2514 38.8354 46.153 38.469 44.7968C38.0589 43.2776 37.7769 43.1923 37.2418 41.5852C36.6864 39.917 36.821 39.5008 36.2891 37.4132C36.0705 36.5556 35.7049 35.2794 35.1012 33.7529C33.6742 34.2335 32.2473 34.7142 30.8203 35.1948L30.8205 35.1946Z" fill="#0D1021"/>
<path d="M30.4252 24.3489C28.7848 23.2486 28.0818 23.3755 27.6062 22.3872C27.1359 21.4097 27.1368 19.8587 27.9153 19.0372C27.9724 18.9769 28.5653 18.3706 29.3677 18.4743C30.5812 18.6315 30.6706 20.206 32.0317 20.9272C33.1852 21.5385 34.4429 21.1085 35.2942 20.8177C37.3441 20.1171 37.6484 18.7919 38.7112 19.0031C40.0428 19.2677 40.1608 21.4668 41.4873 21.6023C42.3742 21.6928 42.5854 20.7375 43.7511 20.4744C45.1208 20.1653 46.6239 21.0794 47.467 22.1909C49.0078 24.2226 48.6019 27.255 47.6379 29.106C46.8459 30.6268 45.143 32.376 43.7084 31.9996C42.5751 31.7022 42.2061 30.2351 41.2312 30.3811C40.538 30.485 40.513 31.2583 39.6936 31.6563C38.348 32.3099 36.6871 31.0643 36.234 30.7243C34.9425 29.7557 35.1483 29.1363 33.483 27.1946C32.8252 26.4277 31.8779 25.323 30.4252 24.3487V24.3489Z" fill="#0D1021"/>
<path d="M18.6757 20.0692C18.6757 20.0692 18.3986 19.6708 18.2226 19.3748C18.0467 19.0788 17.2256 18.2471 17.2256 18.2471C17.2256 18.2471 17.1631 18.379 17.3397 18.5903C17.5164 18.8015 17.8886 19.1634 17.803 19.3165C17.7173 19.4697 17.4766 19.6046 17.6505 19.8937C17.8242 20.1828 18.1265 19.9853 18.2808 20.2173C18.4354 20.4493 18.5935 20.7021 18.5935 20.7021L18.6757 20.0692Z" fill="url(#paint9_linear_4446_38492)"/>
<path d="M18.7837 19.8091C18.5967 20.134 18.4097 20.4588 18.2227 20.7835C18.4174 21.4364 18.7529 22.3432 19.3406 23.2998C19.5999 23.7218 20.404 24.9598 21.7651 25.9552C23.618 27.3103 26.9937 28.5745 27.9819 27.1325C28.8636 25.8457 27.4404 22.9936 27.1784 22.4816C26.648 22.7672 25.7764 23.1459 24.6558 23.2356C24.2885 23.2649 23.3328 23.3318 22.2561 22.9521C20.2633 22.2493 19.157 20.4751 18.7837 19.8093V19.8091Z" fill="white"/>
<path d="M25.0168 24.1628C25.1101 24.644 26.5674 24.386 26.8682 25.2595C27.0297 25.7283 26.687 26.0258 26.6725 26.8219C26.6564 27.713 27.07 28.219 27.3874 28.9202C27.8521 29.9468 27.8538 30.9534 27.8572 32.9663C27.862 35.8317 27.2452 36.4079 27.7717 37.3312C28.4571 38.5331 30.103 38.6099 30.5479 38.6307C32.0693 38.7017 32.2498 37.8717 33.9006 37.7726C35.786 37.6594 36.0545 38.7119 37.4029 38.263C38.6346 37.8528 39.0492 36.7621 40.0084 36.9879C40.6079 37.1291 40.7668 37.6308 41.3323 37.5764C41.9007 37.5219 42.4882 36.9434 42.5282 36.3502C42.578 35.613 41.7933 34.6843 40.5634 34.6827C40.0748 34.8798 39.2646 35.1079 38.3637 34.8544C36.8877 34.4388 36.1199 32.9975 35.2672 31.3968C34.6773 30.2895 33.5931 28.2539 33.5801 25.585C33.5749 24.4845 33.7559 24.1625 33.4947 23.5741C32.6464 21.6639 29.3554 21.9489 29.0767 21.9764C26.8342 22.1984 24.9038 23.5816 25.0164 24.1626L25.0168 24.1628Z" fill="white"/>
<path d="M24.2811 26.5669L28.4148 26.7523C28.4603 26.7542 28.4999 26.7877 28.5153 26.8367L30.4626 33.0397C30.4906 33.1286 30.4029 33.3514 30.321 33.3411L26.2341 32.7027C26.1926 32.6975 26.1569 32.666 26.1419 32.6213L24.1159 26.8315C24.0871 26.7457 24.2007 26.5633 24.2809 26.5669H24.2811Z" fill="#E2435F"/>
<path d="M25.3466 26.9499L25.1874 26.4555C25.1729 26.4109 25.2018 26.3633 25.2431 26.3633H26.7477C26.7736 26.3633 26.7965 26.3826 26.8044 26.4109L26.9558 26.9578C26.9682 27.0027 26.9383 27.0482 26.8972 27.0469L25.4005 26.9944C25.3763 26.9937 25.3549 26.9759 25.3464 26.9499H25.3466Z" fill="url(#paint10_linear_4446_38492)"/>
<path d="M30.9102 31.118C30.9102 31.118 30.2855 30.9753 30.0446 30.8011C29.8037 30.627 29.5481 30.3472 29.1931 30.3624C28.8378 30.3778 28.4805 30.5851 28.6446 30.6328C28.8087 30.6804 29.1151 31.0541 29.3493 31.2013C29.5834 31.3484 30.1184 31.3617 30.2181 31.3536C30.3178 31.3455 30.711 31.6172 30.711 31.6172L30.9102 31.118Z" fill="url(#paint11_linear_4446_38492)"/>
<path opacity="0.57" d="M40.5631 34.683C40.0743 34.8799 39.2643 35.1082 38.3633 34.8546C36.8873 34.439 36.1195 32.9978 35.2667 31.397C34.6767 30.2895 33.5925 28.2541 33.5796 25.5853C33.5741 24.4847 33.7553 24.1627 33.4942 23.5744C33.4527 23.4808 33.4035 23.3939 33.3509 23.3105C32.7065 23.8108 32.4566 24.3116 32.3835 24.7514C32.2059 25.8219 33.0439 26.6972 32.6077 27.6205C32.2616 28.3531 31.5804 28.1618 30.942 29.0182C30.3872 29.7625 30.2067 30.8792 30.4452 31.7368C31.0237 33.8173 33.9424 33.9207 33.9283 35.139C33.9181 36.0174 32.3923 36.6977 31.5172 36.9178C29.5683 37.4074 27.9473 36.3416 27.589 36.0934C27.5511 36.2704 27.5149 36.5778 27.6058 36.9326C27.6392 37.0635 27.6923 37.1935 27.7708 37.3312C28.4562 38.5332 30.1021 38.6099 30.547 38.6307C32.0684 38.7017 32.2489 37.8717 33.8997 37.7726C35.7851 37.6594 36.0536 38.7119 37.4022 38.263C38.6339 37.8528 39.0485 36.7621 40.0076 36.988C40.6072 37.1291 40.766 37.6309 41.3316 37.5765C41.9 37.5219 42.4875 36.9434 42.5275 36.3502C42.5772 35.613 41.7926 34.6843 40.5629 34.6828L40.5631 34.683Z" fill="#D9DDE3"/>
<path d="M30.895 30.8209C30.7027 31.2133 30.5106 31.6055 30.3184 31.9979C30.6147 32.1646 33.7827 33.8858 36.0791 32.1819C36.363 31.9713 37.1176 31.4113 37.5243 30.3149C37.9725 29.1063 37.7211 27.9827 37.5579 27.253C37.154 25.4465 36.0122 23.5515 34.392 22.7899C33.7731 22.4991 33.0384 22.352 32.3472 22.2135C31.7612 22.0961 30.84 21.9522 30.8203 22.0543C30.8107 22.104 31.0247 22.1675 31.1735 22.2641C32.0864 22.857 30.9273 25.3061 32.0002 26.4805C33.028 27.6055 34.3619 27.4198 34.5769 28.4393C34.6768 28.9133 34.4701 29.3397 34.3779 29.5298C33.8636 30.5898 32.4794 31.0642 30.895 30.8209Z" fill="white"/>
<path d="M28.7451 20.2158C28.7451 20.2158 29.117 21.4577 29.5804 21.6513C30.0439 21.8445 30.7763 22.0665 30.8684 22.1527C30.9604 22.2385 28.4065 23.1907 26.9746 22.7526C27.3826 22.5476 27.4917 22.4821 27.4917 22.4821C27.6006 22.4165 27.804 22.2946 27.9946 22.1006C28.1243 21.9687 28.3275 21.7232 28.4805 21.3152L28.3466 20.6102L28.7451 20.2162V20.2158Z" fill="url(#paint12_linear_4446_38492)"/>
<path d="M28.9124 20.7577C28.9124 20.7577 28.6967 21.308 28.1854 21.2236C27.7274 21.148 27.7507 19.8253 28.0619 19.6001C28.1655 19.525 28.3762 19.4963 28.5324 19.5621C28.6422 19.6082 28.9693 19.9157 28.8965 20.3664C28.9973 20.3047 29.098 20.3143 29.1327 20.3699C29.177 20.4401 29.1053 20.5675 29.0889 20.5965C29.0326 20.6965 28.9507 20.7405 28.9124 20.7577Z" fill="url(#paint13_linear_4446_38492)"/>
<defs>
<linearGradient id="paint0_linear_4446_38492" x1="39.7064" y1="6.35099" x2="22.1358" y2="8.77" gradientUnits="userSpaceOnUse">
<stop stop-color="#1095ED"/>
<stop offset="1" stop-color="#E2435F"/>
</linearGradient>
<linearGradient id="paint1_linear_4446_38492" x1="15.617" y1="26.3357" x2="6.64265" y2="27.2888" gradientUnits="userSpaceOnUse">
<stop stop-color="#444B8C"/>
<stop offset="1" stop-color="#26264F"/>
</linearGradient>
<linearGradient id="paint2_linear_4446_38492" x1="15.2095" y1="1.20693" x2="-12.1025" y2="73.2321" gradientUnits="userSpaceOnUse">
<stop stop-color="#FFC444"/>
<stop offset="1" stop-color="#F36F56"/>
</linearGradient>
<linearGradient id="paint3_linear_4446_38492" x1="7.96284" y1="18.279" x2="23.5611" y2="18.279" gradientUnits="userSpaceOnUse">
<stop stop-color="#311944"/>
<stop offset="1" stop-color="#893976"/>
</linearGradient>
<linearGradient id="paint4_linear_4446_38492" x1="23.837" y1="11.6838" x2="9.19388" y2="15.0247" gradientUnits="userSpaceOnUse">
<stop stop-color="#1095ED"/>
<stop offset="1" stop-color="#E2435F"/>
</linearGradient>
<linearGradient id="paint5_linear_4446_38492" x1="8.25403" y1="18.4789" x2="19.5409" y2="18.4789" gradientUnits="userSpaceOnUse">
<stop stop-color="#311944"/>
<stop offset="1" stop-color="#893976"/>
</linearGradient>
<linearGradient id="paint6_linear_4446_38492" x1="21.8035" y1="13.1598" x2="11.0074" y2="15.4957" gradientUnits="userSpaceOnUse">
<stop stop-color="#1095ED"/>
<stop offset="1" stop-color="#E2435F"/>
</linearGradient>
<linearGradient id="paint7_linear_4446_38492" x1="31.0052" y1="53.8079" x2="30.9155" y2="47.4694" gradientUnits="userSpaceOnUse">
<stop stop-color="#FFC444"/>
<stop offset="1" stop-color="#F36F56"/>
</linearGradient>
<linearGradient id="paint8_linear_4446_38492" x1="38.2566" y1="53.6934" x2="38.1669" y2="47.3556" gradientUnits="userSpaceOnUse">
<stop stop-color="#FFC444"/>
<stop offset="1" stop-color="#F36F56"/>
</linearGradient>
<linearGradient id="paint9_linear_4446_38492" x1="17.2149" y1="19.4747" x2="18.6757" y2="19.4747" gradientUnits="userSpaceOnUse">
<stop stop-color="#FFC444"/>
<stop offset="1" stop-color="#F36F56"/>
</linearGradient>
<linearGradient id="paint10_linear_4446_38492" x1="26.7811" y1="24.3186" x2="25.9921" y2="26.8332" gradientUnits="userSpaceOnUse">
<stop stop-color="#26264F"/>
<stop offset="1" stop-color="#444B8C"/>
</linearGradient>
<linearGradient id="paint11_linear_4446_38492" x1="28.6036" y1="30.9896" x2="30.9102" y2="30.9896" gradientUnits="userSpaceOnUse">
<stop stop-color="#FFC444"/>
<stop offset="1" stop-color="#F36F56"/>
</linearGradient>
<linearGradient id="paint12_linear_4446_38492" x1="28.8379" y1="22.6631" x2="30.9398" y2="17.7737" gradientUnits="userSpaceOnUse">
<stop stop-color="#FFC444"/>
<stop offset="1" stop-color="#F36F56"/>
</linearGradient>
<linearGradient id="paint13_linear_4446_38492" x1="28.0786" y1="20.6196" x2="32.6493" y2="16.4839" gradientUnits="userSpaceOnUse">
<stop stop-color="#FFC444"/>
<stop offset="1" stop-color="#F36F56"/>
</linearGradient>
</defs>
</svg>
