<svg width="21" height="21" viewBox="0 0 21 21" fill="none" xmlns="http://www.w3.org/2000/svg">
<path fill-rule="evenodd" clip-rule="evenodd" d="M15.519 0.35467C15.6009 0.228395 15.7201 0.128263 15.8613 0.0669296C16.0026 0.00559579 16.1596 -0.0141878 16.3126 0.0100791L20.3448 0.655622C20.5499 0.688432 20.7329 0.797996 20.8538 0.960237C20.9746 1.12248 21.0234 1.32412 20.9894 1.52086L20.3182 5.39111C20.2926 5.53782 20.2222 5.67395 20.116 5.7823C20.0097 5.89065 19.8724 5.96636 19.7213 5.99985C19.5703 6.03335 19.4123 6.02313 19.2673 5.97049C19.1222 5.91785 18.9968 5.82515 18.9066 5.7041L17.8182 4.24448L12.2129 7.68135C11.9738 7.82811 11.6876 7.88701 11.4068 7.84718C11.1261 7.80736 10.8698 7.67151 10.6853 7.46467L7.55954 3.95857L1.71426 6.84019C1.43682 6.97708 1.11406 7.00262 0.816997 6.91118C0.519931 6.81975 0.272888 6.61884 0.130215 6.35265C-0.0124576 6.08646 -0.0390733 5.77679 0.0562232 5.49177C0.15152 5.20675 0.360922 4.96973 0.638364 4.83284L7.31174 1.54193C7.54735 1.4258 7.8169 1.38936 8.07678 1.43852C8.33665 1.48768 8.57162 1.61955 8.74366 1.81278L11.8082 5.25116L16.4506 2.40415L15.5456 1.18981C15.4557 1.06872 15.4051 0.92476 15.4004 0.776118C15.3956 0.627477 15.4369 0.480819 15.519 0.35467ZM5.25248 7.74305L0.701099 10.241C0.521296 10.3395 0.371792 10.4818 0.267696 10.6536C0.1636 10.8253 0.108601 11.0204 0.108258 11.219V19.8714C0.108258 20.4944 0.635228 21 1.28453 21H5.25248V7.74305ZM7.21294 21H12.9657V10.7496L10.3795 11.9895L7.7948 7.64975C7.66427 7.42905 7.45975 7.25722 7.21451 7.16221L7.21294 21ZM19.3207 21H14.9261V9.80909L18.7953 7.95221C18.9746 7.86631 19.1739 7.82581 19.3741 7.83454C19.5743 7.84327 19.7689 7.90094 19.9394 8.0021C20.1099 8.10325 20.2506 8.24452 20.3481 8.4125C20.4457 8.58048 20.497 8.7696 20.497 8.96191V19.8714C20.497 20.1707 20.373 20.4578 20.1524 20.6694C19.9318 20.8811 19.6327 21 19.3207 21Z" fill="url(#paint0_linear_7103_24660)"/>
<defs>
<linearGradient id="paint0_linear_7103_24660" x1="21" y1="3.5" x2="1.66053" y2="9.1669" gradientUnits="userSpaceOnUse">
<stop stop-color="#1095ED"/>
<stop offset="1" stop-color="#E2435F"/>
</linearGradient>
</defs>
</svg>
